<svg width="411" height="823" viewBox="0 0 411 823" fill="none" xmlns="http://www.w3.org/2000/svg">
<rect width="411" height="823" fill="white"/>
<path d="M125.825 805V797.891H127.832C128.451 797.891 128.997 798.027 129.473 798.301C129.948 798.574 130.314 798.963 130.571 799.468C130.832 799.972 130.964 800.552 130.967 801.206V801.66C130.967 802.331 130.837 802.918 130.576 803.423C130.319 803.927 129.95 804.315 129.468 804.585C128.989 804.855 128.431 804.993 127.793 805H125.825ZM126.763 798.662V804.233H127.749C128.472 804.233 129.033 804.009 129.434 803.56C129.837 803.11 130.039 802.471 130.039 801.641V801.226C130.039 800.418 129.849 799.792 129.468 799.346C129.09 798.896 128.553 798.669 127.856 798.662H126.763ZM134.438 805.098C133.722 805.098 133.14 804.863 132.69 804.395C132.241 803.923 132.017 803.293 132.017 802.505V802.339C132.017 801.815 132.116 801.348 132.314 800.938C132.516 800.524 132.796 800.202 133.154 799.971C133.516 799.736 133.906 799.619 134.326 799.619C135.013 799.619 135.547 799.845 135.928 800.298C136.309 800.75 136.499 801.398 136.499 802.241V802.617H132.92C132.933 803.138 133.084 803.56 133.374 803.882C133.667 804.201 134.038 804.36 134.487 804.36C134.806 804.36 135.076 804.295 135.298 804.165C135.519 804.035 135.713 803.862 135.879 803.647L136.431 804.077C135.988 804.757 135.324 805.098 134.438 805.098ZM134.326 800.361C133.962 800.361 133.656 800.495 133.408 800.762C133.161 801.025 133.008 801.396 132.949 801.875H135.596V801.807C135.57 801.348 135.446 800.993 135.225 800.742C135.003 800.488 134.704 800.361 134.326 800.361ZM139.224 803.774L140.532 799.717H141.455L139.561 805H138.872L136.958 799.717H137.881L139.224 803.774ZM144.448 805.098C143.732 805.098 143.149 804.863 142.7 804.395C142.251 803.923 142.026 803.293 142.026 802.505V802.339C142.026 801.815 142.126 801.348 142.324 800.938C142.526 800.524 142.806 800.202 143.164 799.971C143.525 799.736 143.916 799.619 144.336 799.619C145.023 799.619 145.557 799.845 145.938 800.298C146.318 800.75 146.509 801.398 146.509 802.241V802.617H142.93C142.943 803.138 143.094 803.56 143.384 803.882C143.677 804.201 144.048 804.36 144.497 804.36C144.816 804.36 145.086 804.295 145.308 804.165C145.529 804.035 145.723 803.862 145.889 803.647L146.44 804.077C145.998 804.757 145.334 805.098 144.448 805.098ZM144.336 800.361C143.971 800.361 143.665 800.495 143.418 800.762C143.171 801.025 143.018 801.396 142.959 801.875H145.605V801.807C145.579 801.348 145.456 800.993 145.234 800.742C145.013 800.488 144.714 800.361 144.336 800.361ZM148.54 805H147.637V797.5H148.54V805ZM149.751 802.31C149.751 801.792 149.852 801.326 150.054 800.913C150.259 800.5 150.542 800.181 150.903 799.956C151.268 799.731 151.683 799.619 152.148 799.619C152.868 799.619 153.449 799.868 153.892 800.366C154.338 800.864 154.561 801.527 154.561 802.354V802.417C154.561 802.931 154.461 803.394 154.263 803.804C154.067 804.211 153.786 804.528 153.418 804.756C153.053 804.984 152.633 805.098 152.158 805.098C151.442 805.098 150.861 804.849 150.415 804.351C149.972 803.853 149.751 803.193 149.751 802.373V802.31ZM150.659 802.417C150.659 803.003 150.794 803.473 151.064 803.828C151.338 804.183 151.702 804.36 152.158 804.36C152.617 804.36 152.982 804.181 153.252 803.823C153.522 803.462 153.657 802.957 153.657 802.31C153.657 801.73 153.519 801.261 153.242 800.903C152.969 800.542 152.604 800.361 152.148 800.361C151.702 800.361 151.343 800.539 151.069 800.894C150.796 801.248 150.659 801.756 150.659 802.417ZM160.156 802.417C160.156 803.221 159.972 803.869 159.604 804.36C159.237 804.852 158.739 805.098 158.11 805.098C157.469 805.098 156.965 804.894 156.597 804.487V807.031H155.693V799.717H156.519L156.562 800.303C156.93 799.847 157.441 799.619 158.096 799.619C158.73 799.619 159.232 799.858 159.6 800.337C159.971 800.815 160.156 801.481 160.156 802.334V802.417ZM159.253 802.314C159.253 801.719 159.126 801.248 158.872 800.903C158.618 800.558 158.27 800.386 157.827 800.386C157.28 800.386 156.87 800.628 156.597 801.113V803.638C156.867 804.119 157.28 804.36 157.837 804.36C158.27 804.36 158.613 804.189 158.867 803.848C159.124 803.503 159.253 802.992 159.253 802.314ZM163.501 805.098C162.785 805.098 162.202 804.863 161.753 804.395C161.304 803.923 161.079 803.293 161.079 802.505V802.339C161.079 801.815 161.178 801.348 161.377 800.938C161.579 800.524 161.859 800.202 162.217 799.971C162.578 799.736 162.969 799.619 163.389 799.619C164.076 799.619 164.609 799.845 164.99 800.298C165.371 800.75 165.562 801.398 165.562 802.241V802.617H161.982C161.995 803.138 162.147 803.56 162.437 803.882C162.729 804.201 163.101 804.36 163.55 804.36C163.869 804.36 164.139 804.295 164.36 804.165C164.582 804.035 164.775 803.862 164.941 803.647L165.493 804.077C165.05 804.757 164.386 805.098 163.501 805.098ZM163.389 800.361C163.024 800.361 162.718 800.495 162.471 800.762C162.223 801.025 162.07 801.396 162.012 801.875H164.658V801.807C164.632 801.348 164.508 800.993 164.287 800.742C164.066 800.488 163.766 800.361 163.389 800.361ZM166.392 802.314C166.392 801.504 166.584 800.853 166.968 800.361C167.352 799.867 167.855 799.619 168.477 799.619C169.095 799.619 169.585 799.831 169.946 800.254V797.5H170.85V805H170.02L169.976 804.434C169.614 804.876 169.111 805.098 168.467 805.098C167.855 805.098 167.355 804.847 166.968 804.346C166.584 803.844 166.392 803.19 166.392 802.383V802.314ZM167.295 802.417C167.295 803.016 167.419 803.485 167.666 803.823C167.913 804.162 168.255 804.331 168.691 804.331C169.264 804.331 169.683 804.074 169.946 803.56V801.133C169.676 800.635 169.261 800.386 168.701 800.386C168.258 800.386 167.913 800.557 167.666 800.898C167.419 801.24 167.295 801.746 167.295 802.417ZM179.209 802.417C179.209 803.224 179.023 803.874 178.652 804.365C178.281 804.854 177.783 805.098 177.158 805.098C176.491 805.098 175.975 804.862 175.61 804.39L175.566 805H174.736V797.5H175.64V800.298C176.004 799.845 176.507 799.619 177.148 799.619C177.79 799.619 178.293 799.862 178.657 800.347C179.025 800.832 179.209 801.496 179.209 802.339V802.417ZM178.306 802.314C178.306 801.699 178.187 801.224 177.949 800.889C177.712 800.553 177.37 800.386 176.924 800.386C176.328 800.386 175.9 800.662 175.64 801.216V803.501C175.916 804.054 176.348 804.331 176.934 804.331C177.367 804.331 177.703 804.163 177.944 803.828C178.185 803.493 178.306 802.988 178.306 802.314ZM182.021 803.677L183.252 799.717H184.219L182.095 805.815C181.766 806.694 181.243 807.134 180.527 807.134L180.356 807.119L180.02 807.056V806.323L180.264 806.343C180.57 806.343 180.807 806.281 180.977 806.157C181.149 806.034 181.291 805.807 181.401 805.479L181.602 804.941L179.717 799.717H180.703L182.021 803.677ZM192.9 804.067C192.66 804.412 192.323 804.671 191.89 804.844C191.46 805.013 190.959 805.098 190.386 805.098C189.806 805.098 189.292 804.963 188.843 804.692C188.394 804.419 188.045 804.032 187.798 803.53C187.554 803.029 187.428 802.448 187.422 801.787V801.167C187.422 800.096 187.671 799.266 188.169 798.677C188.67 798.088 189.373 797.793 190.278 797.793C191.021 797.793 191.618 797.983 192.07 798.364C192.523 798.742 192.799 799.279 192.9 799.976H191.963C191.787 799.035 191.227 798.564 190.283 798.564C189.655 798.564 189.178 798.786 188.853 799.229C188.53 799.668 188.368 800.306 188.364 801.143V801.724C188.364 802.521 188.547 803.156 188.911 803.628C189.276 804.097 189.769 804.331 190.391 804.331C190.742 804.331 191.05 804.292 191.313 804.214C191.577 804.136 191.795 804.004 191.968 803.818V802.222H190.322V801.46H192.9V804.067ZM197.588 805C197.536 804.896 197.493 804.71 197.461 804.443C197.041 804.88 196.54 805.098 195.957 805.098C195.436 805.098 195.008 804.951 194.673 804.658C194.341 804.362 194.175 803.988 194.175 803.535C194.175 802.985 194.383 802.559 194.8 802.256C195.22 801.95 195.809 801.797 196.567 801.797H197.446V801.382C197.446 801.066 197.352 800.815 197.163 800.63C196.974 800.441 196.696 800.347 196.328 800.347C196.006 800.347 195.736 800.428 195.518 800.591C195.299 800.754 195.19 800.951 195.19 801.182H194.282C194.282 800.918 194.375 800.664 194.561 800.42C194.749 800.173 195.003 799.977 195.322 799.834C195.645 799.691 195.998 799.619 196.382 799.619C196.991 799.619 197.467 799.772 197.812 800.078C198.158 800.381 198.337 800.799 198.35 801.333V803.765C198.35 804.25 198.411 804.635 198.535 804.922V805H197.588ZM196.089 804.312C196.372 804.312 196.641 804.238 196.895 804.092C197.148 803.945 197.332 803.755 197.446 803.521V802.437H196.738C195.632 802.437 195.078 802.76 195.078 803.408C195.078 803.691 195.173 803.913 195.361 804.072C195.55 804.232 195.793 804.312 196.089 804.312ZM203.027 804.478C202.676 804.891 202.16 805.098 201.479 805.098C200.916 805.098 200.487 804.935 200.19 804.609C199.897 804.281 199.749 803.796 199.746 803.154V799.717H200.649V803.13C200.649 803.931 200.975 804.331 201.626 804.331C202.316 804.331 202.775 804.074 203.003 803.56V799.717H203.906V805H203.047L203.027 804.478ZM206.509 798.438V799.717H207.495V800.415H206.509V803.691C206.509 803.903 206.553 804.062 206.641 804.17C206.729 804.274 206.878 804.326 207.09 804.326C207.194 804.326 207.337 804.307 207.52 804.268V805C207.282 805.065 207.051 805.098 206.826 805.098C206.423 805.098 206.118 804.976 205.913 804.731C205.708 804.487 205.605 804.141 205.605 803.691V800.415H204.644V799.717H205.605V798.438H206.509ZM211.816 805C211.764 804.896 211.722 804.71 211.689 804.443C211.27 804.88 210.768 805.098 210.186 805.098C209.665 805.098 209.237 804.951 208.901 804.658C208.569 804.362 208.403 803.988 208.403 803.535C208.403 802.985 208.612 802.559 209.028 802.256C209.448 801.95 210.037 801.797 210.796 801.797H211.675V801.382C211.675 801.066 211.58 800.815 211.392 800.63C211.203 800.441 210.924 800.347 210.557 800.347C210.234 800.347 209.964 800.428 209.746 800.591C209.528 800.754 209.419 800.951 209.419 801.182H208.511C208.511 800.918 208.604 800.664 208.789 800.42C208.978 800.173 209.232 799.977 209.551 799.834C209.873 799.691 210.226 799.619 210.61 799.619C211.219 799.619 211.696 799.772 212.041 800.078C212.386 800.381 212.565 800.799 212.578 801.333V803.765C212.578 804.25 212.64 804.635 212.764 804.922V805H211.816ZM210.317 804.312C210.601 804.312 210.869 804.238 211.123 804.092C211.377 803.945 211.561 803.755 211.675 803.521V802.437H210.967C209.86 802.437 209.307 802.76 209.307 803.408C209.307 803.691 209.401 803.913 209.59 804.072C209.779 804.232 210.021 804.312 210.317 804.312ZM214.844 799.717L214.868 800.303C215.256 799.847 215.778 799.619 216.436 799.619C217.174 799.619 217.677 799.902 217.944 800.469C218.12 800.215 218.348 800.01 218.628 799.854C218.911 799.697 219.245 799.619 219.629 799.619C220.788 799.619 221.377 800.233 221.396 801.46V805H220.493V801.514C220.493 801.136 220.407 800.854 220.234 800.669C220.062 800.48 219.772 800.386 219.365 800.386C219.03 800.386 218.752 800.487 218.53 800.688C218.309 800.887 218.18 801.156 218.145 801.494V805H217.236V801.538C217.236 800.77 216.86 800.386 216.108 800.386C215.516 800.386 215.111 800.638 214.893 801.143V805H213.989V799.717H214.844ZM230.615 802.744C230.527 803.496 230.249 804.077 229.78 804.487C229.315 804.894 228.695 805.098 227.92 805.098C227.08 805.098 226.406 804.797 225.898 804.194C225.394 803.592 225.142 802.786 225.142 801.777V801.094C225.142 800.433 225.259 799.852 225.493 799.351C225.731 798.849 226.066 798.465 226.499 798.198C226.932 797.928 227.433 797.793 228.003 797.793C228.758 797.793 229.364 798.005 229.819 798.428C230.275 798.848 230.54 799.43 230.615 800.176H229.673C229.591 799.609 229.414 799.199 229.141 798.945C228.87 798.691 228.491 798.564 228.003 798.564C227.404 798.564 226.934 798.786 226.592 799.229C226.253 799.671 226.084 800.301 226.084 801.118V801.807C226.084 802.578 226.245 803.192 226.567 803.647C226.89 804.103 227.34 804.331 227.92 804.331C228.441 804.331 228.84 804.214 229.116 803.979C229.396 803.742 229.582 803.33 229.673 802.744H230.615ZM232.661 800.356C233.062 799.865 233.582 799.619 234.224 799.619C235.34 799.619 235.903 800.249 235.913 801.509V805H235.01V801.504C235.007 801.123 234.919 800.841 234.746 800.659C234.577 800.477 234.312 800.386 233.95 800.386C233.657 800.386 233.4 800.464 233.179 800.62C232.957 800.776 232.785 800.981 232.661 801.235V805H231.758V797.5H232.661V800.356ZM240.527 805C240.475 804.896 240.433 804.71 240.4 804.443C239.98 804.88 239.479 805.098 238.896 805.098C238.376 805.098 237.948 804.951 237.612 804.658C237.28 804.362 237.114 803.988 237.114 803.535C237.114 802.985 237.323 802.559 237.739 802.256C238.159 801.95 238.748 801.797 239.507 801.797H240.386V801.382C240.386 801.066 240.291 800.815 240.103 800.63C239.914 800.441 239.635 800.347 239.268 800.347C238.945 800.347 238.675 800.428 238.457 800.591C238.239 800.754 238.13 800.951 238.13 801.182H237.222C237.222 800.918 237.314 800.664 237.5 800.42C237.689 800.173 237.943 799.977 238.262 799.834C238.584 799.691 238.937 799.619 239.321 799.619C239.93 799.619 240.407 799.772 240.752 800.078C241.097 800.381 241.276 800.799 241.289 801.333V803.765C241.289 804.25 241.351 804.635 241.475 804.922V805H240.527ZM239.028 804.312C239.312 804.312 239.58 804.238 239.834 804.092C240.088 803.945 240.272 803.755 240.386 803.521V802.437H239.678C238.571 802.437 238.018 802.76 238.018 803.408C238.018 803.691 238.112 803.913 238.301 804.072C238.49 804.232 238.732 804.312 239.028 804.312ZM243.56 799.717L243.589 800.381C243.993 799.873 244.52 799.619 245.171 799.619C246.287 799.619 246.851 800.249 246.86 801.509V805H245.957V801.504C245.954 801.123 245.866 800.841 245.693 800.659C245.524 800.477 245.259 800.386 244.897 800.386C244.604 800.386 244.347 800.464 244.126 800.62C243.905 800.776 243.732 800.981 243.608 801.235V805H242.705V799.717H243.56ZM248.003 802.314C248.003 801.504 248.195 800.853 248.579 800.361C248.963 799.867 249.466 799.619 250.088 799.619C250.706 799.619 251.196 799.831 251.558 800.254V797.5H252.461V805H251.631L251.587 804.434C251.226 804.876 250.723 805.098 250.078 805.098C249.466 805.098 248.966 804.847 248.579 804.346C248.195 803.844 248.003 803.19 248.003 802.383V802.314ZM248.906 802.417C248.906 803.016 249.03 803.485 249.277 803.823C249.525 804.162 249.867 804.331 250.303 804.331C250.876 804.331 251.294 804.074 251.558 803.56V801.133C251.287 800.635 250.872 800.386 250.312 800.386C249.87 800.386 249.525 800.557 249.277 800.898C249.03 801.24 248.906 801.746 248.906 802.417ZM256.421 800.527C256.284 800.505 256.136 800.493 255.977 800.493C255.384 800.493 254.982 800.745 254.771 801.25V805H253.867V799.717H254.746L254.761 800.327C255.057 799.855 255.477 799.619 256.021 799.619C256.196 799.619 256.33 799.642 256.421 799.688V800.527ZM260.322 805C260.27 804.896 260.228 804.71 260.195 804.443C259.775 804.88 259.274 805.098 258.691 805.098C258.171 805.098 257.743 804.951 257.407 804.658C257.075 804.362 256.909 803.988 256.909 803.535C256.909 802.985 257.118 802.559 257.534 802.256C257.954 801.95 258.543 801.797 259.302 801.797H260.181V801.382C260.181 801.066 260.086 800.815 259.897 800.63C259.709 800.441 259.43 800.347 259.062 800.347C258.74 800.347 258.47 800.428 258.252 800.591C258.034 800.754 257.925 800.951 257.925 801.182H257.017C257.017 800.918 257.109 800.664 257.295 800.42C257.484 800.173 257.738 799.977 258.057 799.834C258.379 799.691 258.732 799.619 259.116 799.619C259.725 799.619 260.202 799.772 260.547 800.078C260.892 800.381 261.071 800.799 261.084 801.333V803.765C261.084 804.25 261.146 804.635 261.27 804.922V805H260.322ZM258.823 804.312C259.106 804.312 259.375 804.238 259.629 804.092C259.883 803.945 260.067 803.755 260.181 803.521V802.437H259.473C258.366 802.437 257.812 802.76 257.812 803.408C257.812 803.691 257.907 803.913 258.096 804.072C258.285 804.232 258.527 804.312 258.823 804.312ZM267.217 801.831C266.413 801.6 265.827 801.317 265.459 800.981C265.094 800.643 264.912 800.226 264.912 799.731C264.912 799.172 265.135 798.709 265.581 798.345C266.03 797.977 266.613 797.793 267.329 797.793C267.817 797.793 268.252 797.887 268.633 798.076C269.017 798.265 269.313 798.525 269.521 798.857C269.733 799.189 269.839 799.552 269.839 799.946H268.896C268.896 799.517 268.76 799.18 268.486 798.936C268.213 798.688 267.827 798.564 267.329 798.564C266.867 798.564 266.506 798.667 266.245 798.872C265.988 799.074 265.859 799.355 265.859 799.717C265.859 800.007 265.981 800.252 266.226 800.454C266.473 800.653 266.891 800.835 267.48 801.001C268.073 801.167 268.535 801.351 268.867 801.553C269.202 801.751 269.45 801.984 269.609 802.251C269.772 802.518 269.854 802.832 269.854 803.193C269.854 803.77 269.629 804.232 269.18 804.58C268.73 804.925 268.13 805.098 267.378 805.098C266.89 805.098 266.434 805.005 266.011 804.819C265.588 804.631 265.26 804.373 265.029 804.048C264.801 803.722 264.688 803.353 264.688 802.939H265.63C265.63 803.369 265.788 803.709 266.104 803.96C266.423 804.207 266.847 804.331 267.378 804.331C267.873 804.331 268.252 804.23 268.516 804.028C268.779 803.826 268.911 803.551 268.911 803.203C268.911 802.855 268.789 802.586 268.545 802.397C268.301 802.205 267.858 802.017 267.217 801.831ZM274.18 805C274.128 804.896 274.085 804.71 274.053 804.443C273.633 804.88 273.132 805.098 272.549 805.098C272.028 805.098 271.6 804.951 271.265 804.658C270.933 804.362 270.767 803.988 270.767 803.535C270.767 802.985 270.975 802.559 271.392 802.256C271.812 801.95 272.401 801.797 273.159 801.797H274.038V801.382C274.038 801.066 273.944 800.815 273.755 800.63C273.566 800.441 273.288 800.347 272.92 800.347C272.598 800.347 272.327 800.428 272.109 800.591C271.891 800.754 271.782 800.951 271.782 801.182H270.874C270.874 800.918 270.967 800.664 271.152 800.42C271.341 800.173 271.595 799.977 271.914 799.834C272.236 799.691 272.59 799.619 272.974 799.619C273.582 799.619 274.059 799.772 274.404 800.078C274.749 800.381 274.928 800.799 274.941 801.333V803.765C274.941 804.25 275.003 804.635 275.127 804.922V805H274.18ZM272.681 804.312C272.964 804.312 273.232 804.238 273.486 804.092C273.74 803.945 273.924 803.755 274.038 803.521V802.437H273.33C272.223 802.437 271.67 802.76 271.67 803.408C271.67 803.691 271.764 803.913 271.953 804.072C272.142 804.232 272.384 804.312 272.681 804.312ZM277.261 800.356C277.661 799.865 278.182 799.619 278.823 799.619C279.94 799.619 280.503 800.249 280.513 801.509V805H279.609V801.504C279.606 801.123 279.518 800.841 279.346 800.659C279.176 800.477 278.911 800.386 278.55 800.386C278.257 800.386 278 800.464 277.778 800.62C277.557 800.776 277.384 800.981 277.261 801.235V805H276.357V797.5H277.261V800.356ZM285.127 805C285.075 804.896 285.033 804.71 285 804.443C284.58 804.88 284.079 805.098 283.496 805.098C282.975 805.098 282.547 804.951 282.212 804.658C281.88 804.362 281.714 803.988 281.714 803.535C281.714 802.985 281.922 802.559 282.339 802.256C282.759 801.95 283.348 801.797 284.106 801.797H284.985V801.382C284.985 801.066 284.891 800.815 284.702 800.63C284.513 800.441 284.235 800.347 283.867 800.347C283.545 800.347 283.275 800.428 283.057 800.591C282.839 800.754 282.729 800.951 282.729 801.182H281.821C281.821 800.918 281.914 800.664 282.1 800.42C282.288 800.173 282.542 799.977 282.861 799.834C283.184 799.691 283.537 799.619 283.921 799.619C284.53 799.619 285.007 799.772 285.352 800.078C285.697 800.381 285.876 800.799 285.889 801.333V803.765C285.889 804.25 285.951 804.635 286.074 804.922V805H285.127ZM283.628 804.312C283.911 804.312 284.18 804.238 284.434 804.092C284.688 803.945 284.871 803.755 284.985 803.521V802.437H284.277C283.171 802.437 282.617 802.76 282.617 803.408C282.617 803.691 282.712 803.913 282.9 804.072C283.089 804.232 283.332 804.312 283.628 804.312Z" fill="#C4C4C4"/>
<path d="M148.913 788.124H147.243V791H146.301V783.891H148.654C149.455 783.891 150.07 784.073 150.5 784.438C150.933 784.802 151.149 785.333 151.149 786.029C151.149 786.472 151.029 786.858 150.788 787.187C150.55 787.515 150.218 787.761 149.792 787.924L151.462 790.941V791H150.456L148.913 788.124ZM147.243 787.357H148.684C149.149 787.357 149.519 787.237 149.792 786.996C150.069 786.755 150.207 786.433 150.207 786.029C150.207 785.59 150.075 785.253 149.812 785.019C149.551 784.784 149.174 784.665 148.679 784.662H147.243V787.357ZM154.519 791.098C153.802 791.098 153.22 790.863 152.771 790.395C152.321 789.923 152.097 789.293 152.097 788.505V788.339C152.097 787.815 152.196 787.348 152.395 786.938C152.596 786.524 152.876 786.202 153.234 785.971C153.596 785.736 153.986 785.619 154.406 785.619C155.093 785.619 155.627 785.845 156.008 786.298C156.389 786.75 156.579 787.398 156.579 788.241V788.617H153C153.013 789.138 153.164 789.56 153.454 789.882C153.747 790.201 154.118 790.36 154.567 790.36C154.886 790.36 155.157 790.295 155.378 790.165C155.599 790.035 155.793 789.862 155.959 789.647L156.511 790.077C156.068 790.757 155.404 791.098 154.519 791.098ZM154.406 786.361C154.042 786.361 153.736 786.495 153.488 786.762C153.241 787.025 153.088 787.396 153.029 787.875H155.676V787.807C155.65 787.348 155.526 786.993 155.305 786.742C155.083 786.488 154.784 786.361 154.406 786.361ZM160.705 789.599C160.705 789.354 160.612 789.166 160.427 789.032C160.244 788.896 159.924 788.778 159.465 788.681C159.009 788.583 158.646 788.466 158.376 788.329C158.109 788.192 157.91 788.03 157.78 787.841C157.653 787.652 157.59 787.427 157.59 787.167C157.59 786.734 157.772 786.368 158.137 786.068C158.505 785.769 158.973 785.619 159.543 785.619C160.142 785.619 160.627 785.774 160.998 786.083C161.372 786.392 161.56 786.788 161.56 787.27H160.651C160.651 787.022 160.546 786.809 160.334 786.63C160.126 786.451 159.862 786.361 159.543 786.361C159.214 786.361 158.957 786.433 158.771 786.576C158.586 786.719 158.493 786.907 158.493 787.138C158.493 787.356 158.579 787.52 158.752 787.631C158.924 787.742 159.235 787.847 159.685 787.948C160.137 788.049 160.503 788.17 160.783 788.31C161.063 788.45 161.27 788.619 161.403 788.817C161.54 789.013 161.608 789.252 161.608 789.535C161.608 790.007 161.42 790.386 161.042 790.673C160.664 790.956 160.174 791.098 159.572 791.098C159.149 791.098 158.775 791.023 158.449 790.873C158.124 790.723 157.868 790.515 157.683 790.248C157.5 789.978 157.409 789.687 157.409 789.374H158.312C158.329 789.677 158.449 789.918 158.674 790.097C158.902 790.272 159.201 790.36 159.572 790.36C159.914 790.36 160.188 790.292 160.393 790.155C160.601 790.015 160.705 789.83 160.705 789.599ZM166.047 790.478C165.695 790.891 165.179 791.098 164.499 791.098C163.936 791.098 163.506 790.935 163.21 790.609C162.917 790.281 162.769 789.796 162.766 789.154V785.717H163.669V789.13C163.669 789.931 163.994 790.331 164.646 790.331C165.336 790.331 165.795 790.074 166.022 789.56V785.717H166.926V791H166.066L166.047 790.478ZM169.284 791H168.381V783.5H169.284V791ZM171.96 784.438V785.717H172.946V786.415H171.96V789.691C171.96 789.903 172.004 790.062 172.092 790.17C172.18 790.274 172.329 790.326 172.541 790.326C172.645 790.326 172.788 790.307 172.971 790.268V791C172.733 791.065 172.502 791.098 172.277 791.098C171.874 791.098 171.569 790.976 171.364 790.731C171.159 790.487 171.057 790.141 171.057 789.691V786.415H170.095V785.717H171.057V784.438H171.96ZM177.082 789.599C177.082 789.354 176.989 789.166 176.804 789.032C176.621 788.896 176.301 788.778 175.842 788.681C175.386 788.583 175.023 788.466 174.753 788.329C174.486 788.192 174.287 788.03 174.157 787.841C174.03 787.652 173.967 787.427 173.967 787.167C173.967 786.734 174.149 786.368 174.514 786.068C174.882 785.769 175.35 785.619 175.92 785.619C176.519 785.619 177.004 785.774 177.375 786.083C177.749 786.392 177.937 786.788 177.937 787.27H177.028C177.028 787.022 176.923 786.809 176.711 786.63C176.503 786.451 176.239 786.361 175.92 786.361C175.591 786.361 175.334 786.433 175.148 786.576C174.963 786.719 174.87 786.907 174.87 787.138C174.87 787.356 174.956 787.52 175.129 787.631C175.301 787.742 175.612 787.847 176.062 787.948C176.514 788.049 176.88 788.17 177.16 788.31C177.44 788.45 177.647 788.619 177.78 788.817C177.917 789.013 177.985 789.252 177.985 789.535C177.985 790.007 177.797 790.386 177.419 790.673C177.041 790.956 176.551 791.098 175.949 791.098C175.526 791.098 175.152 791.023 174.826 790.873C174.501 790.723 174.245 790.515 174.06 790.248C173.877 789.978 173.786 789.687 173.786 789.374H174.689C174.706 789.677 174.826 789.918 175.051 790.097C175.279 790.272 175.578 790.36 175.949 790.36C176.291 790.36 176.564 790.292 176.77 790.155C176.978 790.015 177.082 789.83 177.082 789.599ZM185.705 787.86H182.722V791H181.784V783.891H186.188V784.662H182.722V787.094H185.705V787.86ZM189.255 791.098C188.539 791.098 187.956 790.863 187.507 790.395C187.058 789.923 186.833 789.293 186.833 788.505V788.339C186.833 787.815 186.932 787.348 187.131 786.938C187.333 786.524 187.613 786.202 187.971 785.971C188.332 785.736 188.723 785.619 189.143 785.619C189.829 785.619 190.363 785.845 190.744 786.298C191.125 786.75 191.315 787.398 191.315 788.241V788.617H187.736C187.749 789.138 187.901 789.56 188.19 789.882C188.483 790.201 188.854 790.36 189.304 790.36C189.623 790.36 189.893 790.295 190.114 790.165C190.336 790.035 190.529 789.862 190.695 789.647L191.247 790.077C190.804 790.757 190.14 791.098 189.255 791.098ZM189.143 786.361C188.778 786.361 188.472 786.495 188.225 786.762C187.977 787.025 187.824 787.396 187.766 787.875H190.412V787.807C190.386 787.348 190.262 786.993 190.041 786.742C189.82 786.488 189.52 786.361 189.143 786.361ZM193.591 784.438V785.717H194.577V786.415H193.591V789.691C193.591 789.903 193.635 790.062 193.723 790.17C193.811 790.274 193.96 790.326 194.172 790.326C194.276 790.326 194.419 790.307 194.602 790.268V791C194.364 791.065 194.133 791.098 193.908 791.098C193.505 791.098 193.2 790.976 192.995 790.731C192.79 790.487 192.688 790.141 192.688 789.691V786.415H191.726V785.717H192.688V784.438H193.591ZM197.756 790.36C198.078 790.36 198.36 790.263 198.601 790.067C198.841 789.872 198.975 789.628 199.001 789.335H199.855C199.839 789.638 199.735 789.926 199.543 790.199C199.351 790.473 199.094 790.691 198.771 790.854C198.452 791.016 198.114 791.098 197.756 791.098C197.036 791.098 196.464 790.858 196.037 790.38C195.614 789.898 195.402 789.241 195.402 788.407V788.256C195.402 787.742 195.497 787.284 195.686 786.884C195.874 786.483 196.145 786.173 196.496 785.951C196.851 785.73 197.269 785.619 197.751 785.619C198.343 785.619 198.835 785.797 199.226 786.151C199.619 786.506 199.829 786.967 199.855 787.533H199.001C198.975 787.191 198.845 786.911 198.61 786.693C198.379 786.472 198.093 786.361 197.751 786.361C197.292 786.361 196.936 786.527 196.682 786.859C196.431 787.188 196.306 787.665 196.306 788.29V788.461C196.306 789.07 196.431 789.538 196.682 789.867C196.932 790.196 197.29 790.36 197.756 790.36ZM201.774 786.356C202.175 785.865 202.696 785.619 203.337 785.619C204.453 785.619 205.017 786.249 205.026 787.509V791H204.123V787.504C204.12 787.123 204.032 786.841 203.859 786.659C203.69 786.477 203.425 786.386 203.063 786.386C202.771 786.386 202.513 786.464 202.292 786.62C202.071 786.776 201.898 786.981 201.774 787.235V791H200.871V783.5H201.774V786.356ZM208.571 791.098C207.855 791.098 207.272 790.863 206.823 790.395C206.374 789.923 206.149 789.293 206.149 788.505V788.339C206.149 787.815 206.249 787.348 206.447 786.938C206.649 786.524 206.929 786.202 207.287 785.971C207.648 785.736 208.039 785.619 208.459 785.619C209.146 785.619 209.68 785.845 210.061 786.298C210.441 786.75 210.632 787.398 210.632 788.241V788.617H207.053C207.066 789.138 207.217 789.56 207.507 789.882C207.8 790.201 208.171 790.36 208.62 790.36C208.939 790.36 209.209 790.295 209.431 790.165C209.652 790.035 209.846 789.862 210.012 789.647L210.563 790.077C210.121 790.757 209.457 791.098 208.571 791.098ZM208.459 786.361C208.094 786.361 207.788 786.495 207.541 786.762C207.294 787.025 207.141 787.396 207.082 787.875H209.729V787.807C209.702 787.348 209.579 786.993 209.357 786.742C209.136 786.488 208.837 786.361 208.459 786.361ZM211.462 788.314C211.462 787.504 211.654 786.853 212.038 786.361C212.422 785.867 212.925 785.619 213.547 785.619C214.165 785.619 214.655 785.831 215.017 786.254V783.5H215.92V791H215.09L215.046 790.434C214.685 790.876 214.182 791.098 213.537 791.098C212.925 791.098 212.425 790.847 212.038 790.346C211.654 789.844 211.462 789.19 211.462 788.383V788.314ZM212.365 788.417C212.365 789.016 212.489 789.485 212.736 789.823C212.984 790.162 213.326 790.331 213.762 790.331C214.335 790.331 214.753 790.074 215.017 789.56V787.133C214.746 786.635 214.331 786.386 213.771 786.386C213.329 786.386 212.984 786.557 212.736 786.898C212.489 787.24 212.365 787.746 212.365 788.417ZM223.869 787.86H220.886V791H219.948V783.891H224.353V784.662H220.886V787.094H223.869V787.86ZM227.761 786.527C227.624 786.505 227.476 786.493 227.316 786.493C226.724 786.493 226.322 786.745 226.11 787.25V791H225.207V785.717H226.086L226.101 786.327C226.397 785.855 226.817 785.619 227.36 785.619C227.536 785.619 227.67 785.642 227.761 785.688V786.527ZM228.259 788.31C228.259 787.792 228.36 787.326 228.562 786.913C228.767 786.5 229.05 786.181 229.411 785.956C229.776 785.731 230.191 785.619 230.656 785.619C231.376 785.619 231.957 785.868 232.399 786.366C232.845 786.864 233.068 787.527 233.068 788.354V788.417C233.068 788.931 232.969 789.394 232.771 789.804C232.575 790.211 232.294 790.528 231.926 790.756C231.561 790.984 231.141 791.098 230.666 791.098C229.95 791.098 229.369 790.849 228.923 790.351C228.48 789.853 228.259 789.193 228.259 788.373V788.31ZM229.167 788.417C229.167 789.003 229.302 789.473 229.572 789.828C229.846 790.183 230.21 790.36 230.666 790.36C231.125 790.36 231.49 790.181 231.76 789.823C232.03 789.462 232.165 788.957 232.165 788.31C232.165 787.73 232.027 787.261 231.75 786.903C231.477 786.542 231.112 786.361 230.656 786.361C230.21 786.361 229.851 786.539 229.577 786.894C229.304 787.248 229.167 787.756 229.167 788.417ZM235.051 785.717L235.075 786.303C235.463 785.847 235.985 785.619 236.643 785.619C237.382 785.619 237.884 785.902 238.151 786.469C238.327 786.215 238.555 786.01 238.835 785.854C239.118 785.697 239.452 785.619 239.836 785.619C240.995 785.619 241.584 786.233 241.604 787.46V791H240.7V787.514C240.7 787.136 240.614 786.854 240.441 786.669C240.269 786.48 239.979 786.386 239.572 786.386C239.237 786.386 238.959 786.487 238.737 786.688C238.516 786.887 238.387 787.156 238.352 787.494V791H237.443V787.538C237.443 786.77 237.067 786.386 236.315 786.386C235.723 786.386 235.318 786.638 235.1 787.143V791H234.196V785.717H235.051ZM247.688 787.831C246.883 787.6 246.298 787.317 245.93 786.981C245.565 786.643 245.383 786.226 245.383 785.731C245.383 785.172 245.606 784.709 246.052 784.345C246.501 783.977 247.084 783.793 247.8 783.793C248.288 783.793 248.723 783.887 249.104 784.076C249.488 784.265 249.784 784.525 249.992 784.857C250.204 785.189 250.31 785.552 250.31 785.946H249.367C249.367 785.517 249.23 785.18 248.957 784.936C248.684 784.688 248.298 784.564 247.8 784.564C247.338 784.564 246.976 784.667 246.716 784.872C246.459 785.074 246.33 785.355 246.33 785.717C246.33 786.007 246.452 786.252 246.696 786.454C246.944 786.653 247.362 786.835 247.951 787.001C248.544 787.167 249.006 787.351 249.338 787.553C249.673 787.751 249.921 787.984 250.08 788.251C250.243 788.518 250.324 788.832 250.324 789.193C250.324 789.77 250.1 790.232 249.65 790.58C249.201 790.925 248.601 791.098 247.849 791.098C247.36 791.098 246.905 791.005 246.481 790.819C246.058 790.631 245.731 790.373 245.5 790.048C245.272 789.722 245.158 789.353 245.158 788.939H246.101C246.101 789.369 246.258 789.709 246.574 789.96C246.893 790.207 247.318 790.331 247.849 790.331C248.343 790.331 248.723 790.23 248.986 790.028C249.25 789.826 249.382 789.551 249.382 789.203C249.382 788.855 249.26 788.586 249.016 788.397C248.771 788.205 248.329 788.017 247.688 787.831ZM252.741 783.891L255.065 789.691L257.39 783.891H258.605V791H257.668V788.231L257.756 785.243L255.422 791H254.704L252.375 785.258L252.468 788.231V791H251.53V783.891H252.741ZM261.267 791H260.329V783.891H261.267V791ZM267.751 784.662H265.466V791H264.533V784.662H262.253V783.891H267.751V784.662Z" fill="#1C5991"/>
<path d="M76.5957 764H75.707L73.168 758.482L72.2109 764H71.2881L72.5234 756.891H73.4121L75.9561 762.433L76.918 756.891H77.8311L76.5957 764ZM80.8584 764.098C80.4059 764.088 80.012 763.979 79.6768 763.771C79.3447 763.562 79.0827 763.256 78.8906 762.853C78.6986 762.446 78.5928 761.99 78.5732 761.485C78.5537 761.091 78.5977 760.605 78.7051 760.025C78.8125 759.446 78.998 758.924 79.2617 758.458C79.5254 757.993 79.846 757.62 80.2236 757.34C80.7347 756.962 81.3174 756.78 81.9717 756.793C82.665 756.806 83.2119 757.047 83.6123 757.516C84.0127 757.981 84.2275 758.613 84.2568 759.41C84.2699 759.752 84.234 760.187 84.1494 760.714C84.068 761.241 83.9199 761.731 83.7051 762.184C83.4935 762.636 83.2233 763.015 82.8945 763.321C82.3216 763.855 81.6429 764.114 80.8584 764.098ZM83.3535 759.635C83.373 758.993 83.2607 758.497 83.0166 758.146C82.7725 757.791 82.4095 757.607 81.9277 757.594C81.4915 757.581 81.1009 757.698 80.7559 757.945C80.4141 758.193 80.1325 758.564 79.9111 759.059C79.693 759.55 79.5547 760.174 79.4961 760.929L79.4814 761.246C79.4619 761.884 79.5758 762.384 79.8232 762.745C80.0706 763.106 80.4303 763.294 80.9023 763.307C81.5176 763.323 82.027 763.102 82.4307 762.643C82.8376 762.18 83.1077 761.533 83.2412 760.699C83.3063 760.289 83.3438 759.934 83.3535 759.635ZM90.7021 757.662H88.4902L87.3916 764H86.4785L87.5771 757.662H85.3652L85.502 756.891H90.8389L90.7021 757.662ZM95.1504 760.714H92.1621L91.7227 763.233H95.1992L95.0625 764H90.6729L91.9082 756.891H96.249L96.1123 757.662H92.6895L92.2939 759.947H95.2822L95.1504 760.714ZM96.7031 762.975C96.8626 762.971 96.9945 763.02 97.0986 763.121C97.2028 763.222 97.2533 763.352 97.25 763.512C97.2467 763.671 97.193 763.801 97.0889 763.902C96.9847 764 96.8545 764.052 96.6982 764.059C96.542 764.065 96.4134 764.021 96.3125 763.927C96.2116 763.829 96.1611 763.701 96.1611 763.541C96.1611 763.382 96.2116 763.25 96.3125 763.146C96.4134 763.038 96.5436 762.981 96.7031 762.975ZM97.4502 758.663C97.6097 758.66 97.7415 758.709 97.8457 758.81C97.9499 758.91 98.0003 759.041 97.9971 759.2C97.9938 759.36 97.9401 759.49 97.8359 759.591C97.7318 759.688 97.6016 759.741 97.4453 759.747C97.2891 759.754 97.1605 759.71 97.0596 759.615C96.9587 759.518 96.9082 759.389 96.9082 759.229C96.9082 759.07 96.9587 758.938 97.0596 758.834C97.1605 758.727 97.2907 758.67 97.4502 758.663ZM106.767 757.662H104.555L103.456 764H102.543L103.642 757.662H101.43L101.566 756.891H106.903L106.767 757.662ZM108.251 759.361C108.713 758.857 109.245 758.611 109.848 758.624C110.342 758.631 110.709 758.801 110.946 759.137C111.187 759.469 111.277 759.936 111.215 760.538L110.639 764H109.755L110.336 760.523C110.355 760.364 110.357 760.216 110.341 760.079C110.285 759.623 110.017 759.391 109.535 759.381C108.995 759.368 108.529 759.651 108.139 760.23L107.484 764H106.601L107.904 756.5H108.788L108.251 759.361ZM114.276 764.098C113.619 764.085 113.104 763.842 112.733 763.37C112.362 762.898 112.206 762.294 112.265 761.559L112.289 761.349C112.344 760.825 112.499 760.346 112.753 759.913C113.01 759.48 113.323 759.155 113.69 758.937C114.058 758.715 114.455 758.609 114.882 758.619C115.425 758.632 115.852 758.813 116.161 759.161C116.47 759.509 116.64 759.981 116.669 760.577C116.679 760.789 116.672 761 116.649 761.212L116.596 761.617H113.144C113.085 762.096 113.163 762.503 113.378 762.838C113.596 763.173 113.92 763.347 114.35 763.36C114.87 763.373 115.352 763.139 115.795 762.657L116.303 763.087C116.081 763.406 115.795 763.657 115.443 763.839C115.095 764.018 114.706 764.104 114.276 764.098ZM114.838 759.356C114.473 759.347 114.154 759.47 113.881 759.728C113.611 759.985 113.396 760.367 113.236 760.875L115.805 760.88L115.824 760.802C115.876 760.392 115.81 760.051 115.624 759.781C115.442 759.508 115.18 759.366 114.838 759.356ZM119.882 761.349C119.947 760.812 120.095 760.326 120.326 759.894C120.557 759.461 120.842 759.137 121.181 758.922C121.519 758.707 121.892 758.604 122.299 758.614C122.888 758.627 123.34 758.842 123.656 759.259L124.164 756.5H125.048L123.749 764H122.943L123.036 763.434C122.619 763.889 122.105 764.111 121.493 764.098C121.005 764.085 120.616 763.894 120.326 763.526C120.036 763.155 119.88 762.659 119.857 762.037C119.848 761.845 119.856 761.616 119.882 761.349ZM120.731 761.856C120.722 762.322 120.805 762.683 120.98 762.94C121.156 763.198 121.413 763.329 121.752 763.336C122.263 763.359 122.717 763.102 123.114 762.564L123.534 760.123C123.339 759.641 122.984 759.394 122.47 759.381C122.121 759.371 121.814 759.477 121.547 759.698C121.283 759.916 121.081 760.224 120.941 760.621C120.805 761.015 120.735 761.427 120.731 761.856ZM127.431 764.098C126.773 764.085 126.259 763.842 125.888 763.37C125.517 762.898 125.36 762.294 125.419 761.559L125.443 761.349C125.499 760.825 125.653 760.346 125.907 759.913C126.164 759.48 126.477 759.155 126.845 758.937C127.213 758.715 127.61 758.609 128.036 758.619C128.58 758.632 129.006 758.813 129.315 759.161C129.625 759.509 129.794 759.981 129.823 760.577C129.833 760.789 129.826 761 129.804 761.212L129.75 761.617H126.298C126.239 762.096 126.317 762.503 126.532 762.838C126.75 763.173 127.074 763.347 127.504 763.36C128.025 763.373 128.507 763.139 128.949 762.657L129.457 763.087C129.236 763.406 128.949 763.657 128.598 763.839C128.249 764.018 127.86 764.104 127.431 764.098ZM127.992 759.356C127.628 759.347 127.309 759.47 127.035 759.728C126.765 759.985 126.55 760.367 126.391 760.875L128.959 760.88L128.979 760.802C129.031 760.392 128.964 760.051 128.778 759.781C128.596 759.508 128.334 759.366 127.992 759.356ZM132.182 762.765L134.086 758.717H135.019L132.357 764H131.684L130.648 758.717H131.518L132.182 762.765ZM137.226 764.098C136.568 764.085 136.054 763.842 135.683 763.37C135.312 762.898 135.155 762.294 135.214 761.559L135.238 761.349C135.294 760.825 135.448 760.346 135.702 759.913C135.959 759.48 136.272 759.155 136.64 758.937C137.007 758.715 137.405 758.609 137.831 758.619C138.375 758.632 138.801 758.813 139.11 759.161C139.42 759.509 139.589 759.981 139.618 760.577C139.628 760.789 139.621 761 139.599 761.212L139.545 761.617H136.093C136.034 762.096 136.112 762.503 136.327 762.838C136.545 763.173 136.869 763.347 137.299 763.36C137.82 763.373 138.301 763.139 138.744 762.657L139.252 763.087C139.031 763.406 138.744 763.657 138.393 763.839C138.044 764.018 137.655 764.104 137.226 764.098ZM137.787 759.356C137.423 759.347 137.104 759.47 136.83 759.728C136.56 759.985 136.345 760.367 136.186 760.875L138.754 760.88L138.773 760.802C138.826 760.392 138.759 760.051 138.573 759.781C138.391 759.508 138.129 759.366 137.787 759.356ZM141.083 764H140.204L141.503 756.5H142.387L141.083 764ZM145.463 758.619C145.906 758.626 146.285 758.746 146.601 758.98C146.916 759.215 147.149 759.539 147.299 759.952C147.452 760.362 147.504 760.812 147.455 761.3L147.445 761.407C147.383 761.922 147.23 762.387 146.986 762.804C146.742 763.217 146.426 763.539 146.039 763.771C145.652 764.002 145.227 764.111 144.765 764.098C144.325 764.091 143.946 763.971 143.627 763.736C143.311 763.502 143.08 763.183 142.934 762.779C142.787 762.376 142.735 761.931 142.777 761.446C142.826 760.899 142.974 760.408 143.222 759.972C143.469 759.535 143.786 759.199 144.174 758.961C144.564 758.72 144.994 758.606 145.463 758.619ZM143.666 761.451C143.643 761.656 143.643 761.869 143.666 762.091C143.699 762.475 143.812 762.781 144.008 763.009C144.206 763.237 144.47 763.355 144.799 763.365C145.092 763.375 145.362 763.303 145.609 763.15C145.857 762.994 146.065 762.76 146.234 762.447C146.404 762.135 146.513 761.788 146.562 761.407C146.588 761.108 146.592 760.855 146.576 760.65C146.537 760.257 146.418 759.946 146.22 759.718C146.021 759.49 145.757 759.369 145.429 759.356C144.973 759.347 144.586 759.526 144.267 759.894C143.948 760.261 143.751 760.743 143.676 761.339L143.666 761.451ZM152.899 761.383C152.834 761.92 152.689 762.403 152.465 762.833C152.24 763.263 151.962 763.585 151.63 763.8C151.298 764.011 150.93 764.112 150.526 764.103C149.914 764.09 149.446 763.883 149.12 763.482L148.646 766.031H147.763L149.032 758.717L149.833 758.712L149.735 759.303C150.172 758.834 150.694 758.606 151.303 758.619C151.811 758.632 152.206 758.819 152.489 759.181C152.772 759.542 152.922 760.04 152.938 760.675C152.942 760.883 152.934 761.085 152.914 761.28L152.899 761.383ZM152.03 761.28L152.055 760.87C152.055 760.395 151.964 760.032 151.781 759.781C151.602 759.527 151.342 759.394 151 759.381C150.489 759.368 150.048 759.61 149.677 760.108L149.232 762.643C149.431 763.111 149.787 763.352 150.302 763.365C150.741 763.375 151.114 763.204 151.42 762.853C151.729 762.498 151.933 761.974 152.03 761.28ZM155.897 764.098C155.24 764.085 154.726 763.842 154.354 763.37C153.983 762.898 153.827 762.294 153.886 761.559L153.91 761.349C153.965 760.825 154.12 760.346 154.374 759.913C154.631 759.48 154.944 759.155 155.312 758.937C155.679 758.715 156.076 758.609 156.503 758.619C157.047 758.632 157.473 758.813 157.782 759.161C158.091 759.509 158.261 759.981 158.29 760.577C158.3 760.789 158.293 761 158.271 761.212L158.217 761.617H154.765C154.706 762.096 154.784 762.503 154.999 762.838C155.217 763.173 155.541 763.347 155.971 763.36C156.492 763.373 156.973 763.139 157.416 762.657L157.924 763.087C157.702 763.406 157.416 763.657 157.064 763.839C156.716 764.018 156.327 764.104 155.897 764.098ZM156.459 759.356C156.094 759.347 155.775 759.47 155.502 759.728C155.232 759.985 155.017 760.367 154.857 760.875L157.426 760.88L157.445 760.802C157.497 760.392 157.431 760.051 157.245 759.781C157.063 759.508 156.801 759.366 156.459 759.356ZM162.084 759.522L161.669 759.479C161.103 759.479 160.657 759.734 160.331 760.245L159.682 764H158.798L159.716 758.717L160.57 758.712L160.438 759.327C160.813 758.836 161.254 758.596 161.762 758.609C161.869 758.609 162.009 758.634 162.182 758.683L162.084 759.522ZM165.536 764H164.657L165.575 758.717H166.454L165.536 764ZM166.264 756.788C166.413 756.782 166.537 756.827 166.635 756.925C166.736 757.019 166.786 757.145 166.786 757.301C166.783 757.454 166.732 757.579 166.635 757.677C166.54 757.774 166.417 757.826 166.264 757.833C166.111 757.84 165.985 757.796 165.888 757.701C165.79 757.607 165.743 757.483 165.746 757.33C165.749 757.177 165.798 757.05 165.893 756.949C165.987 756.848 166.111 756.795 166.264 756.788ZM170.253 762.569C170.302 762.205 170.102 761.948 169.652 761.798L168.734 761.529C167.96 761.262 167.585 760.82 167.611 760.201C167.634 759.736 167.846 759.355 168.246 759.059C168.65 758.759 169.123 758.613 169.667 758.619C170.201 758.626 170.634 758.782 170.966 759.088C171.301 759.391 171.462 759.786 171.449 760.274L170.57 760.27C170.577 760.006 170.494 759.791 170.321 759.625C170.149 759.459 169.919 759.373 169.633 759.366C169.327 759.36 169.063 759.435 168.842 759.591C168.637 759.737 168.518 759.929 168.485 760.167C168.443 760.473 168.63 760.696 169.047 760.836L169.491 760.958C170.097 761.114 170.526 761.318 170.78 761.568C171.034 761.819 171.151 762.13 171.132 762.501C171.112 762.83 171.005 763.116 170.81 763.36C170.614 763.604 170.354 763.792 170.028 763.922C169.703 764.049 169.356 764.107 168.988 764.098C168.428 764.091 167.966 763.928 167.602 763.609C167.237 763.287 167.061 762.874 167.074 762.369L167.958 762.374C167.958 762.67 168.052 762.908 168.241 763.087C168.43 763.266 168.689 763.355 169.018 763.355C169.34 763.362 169.618 763.295 169.853 763.155C170.087 763.012 170.22 762.817 170.253 762.569ZM176.234 758.712L176.107 759.381C176.583 758.86 177.123 758.606 177.729 758.619C178.227 758.632 178.594 758.805 178.832 759.137C179.07 759.469 179.158 759.936 179.096 760.538L178.52 764H177.636L178.217 760.523C178.236 760.364 178.238 760.216 178.222 760.079C178.166 759.623 177.898 759.391 177.416 759.381C176.885 759.371 176.42 759.654 176.02 760.23L175.365 764H174.481L175.399 758.717L176.234 758.712ZM182.816 758.619C183.259 758.626 183.638 758.746 183.954 758.98C184.27 759.215 184.503 759.539 184.652 759.952C184.805 760.362 184.857 760.812 184.809 761.3L184.799 761.407C184.737 761.922 184.584 762.387 184.34 762.804C184.096 763.217 183.78 763.539 183.393 763.771C183.005 764.002 182.58 764.111 182.118 764.098C181.679 764.091 181.299 763.971 180.98 763.736C180.665 763.502 180.434 763.183 180.287 762.779C180.141 762.376 180.089 761.931 180.131 761.446C180.18 760.899 180.328 760.408 180.575 759.972C180.823 759.535 181.14 759.199 181.527 758.961C181.918 758.72 182.348 758.606 182.816 758.619ZM181.02 761.451C180.997 761.656 180.997 761.869 181.02 762.091C181.052 762.475 181.166 762.781 181.361 763.009C181.56 763.237 181.824 763.355 182.152 763.365C182.445 763.375 182.715 763.303 182.963 763.15C183.21 762.994 183.419 762.76 183.588 762.447C183.757 762.135 183.866 761.788 183.915 761.407C183.941 761.108 183.946 760.855 183.93 760.65C183.891 760.257 183.772 759.946 183.573 759.718C183.375 759.49 183.111 759.369 182.782 759.356C182.326 759.347 181.939 759.526 181.62 759.894C181.301 760.261 181.104 760.743 181.029 761.339L181.02 761.451ZM187.802 757.438L187.577 758.717H188.539L188.417 759.415H187.46L186.908 762.701C186.898 762.786 186.897 762.864 186.903 762.936C186.926 763.189 187.064 763.316 187.318 763.316C187.426 763.316 187.569 763.3 187.748 763.268L187.68 764.005C187.468 764.063 187.253 764.093 187.035 764.093C186.684 764.086 186.42 763.958 186.244 763.707C186.068 763.453 186 763.113 186.039 762.687L186.576 759.415H185.644L185.766 758.717H186.698L186.923 757.438H187.802ZM194.428 759.522L194.013 759.479C193.446 759.479 193 759.734 192.675 760.245L192.025 764H191.142L192.06 758.717L192.914 758.712L192.782 759.327C193.157 758.836 193.598 758.596 194.105 758.609C194.213 758.609 194.353 758.634 194.525 758.683L194.428 759.522ZM196.659 764.098C196.002 764.085 195.487 763.842 195.116 763.37C194.745 762.898 194.589 762.294 194.647 761.559L194.672 761.349C194.727 760.825 194.882 760.346 195.136 759.913C195.393 759.48 195.705 759.155 196.073 758.937C196.441 758.715 196.838 758.609 197.265 758.619C197.808 758.632 198.235 758.813 198.544 759.161C198.853 759.509 199.022 759.981 199.052 760.577C199.062 760.789 199.055 761 199.032 761.212L198.979 761.617H195.526C195.468 762.096 195.546 762.503 195.761 762.838C195.979 763.173 196.303 763.347 196.732 763.36C197.253 763.373 197.735 763.139 198.178 762.657L198.686 763.087C198.464 763.406 198.178 763.657 197.826 763.839C197.478 764.018 197.089 764.104 196.659 764.098ZM197.221 759.356C196.856 759.347 196.537 759.47 196.264 759.728C195.993 759.985 195.779 760.367 195.619 760.875L198.188 760.88L198.207 760.802C198.259 760.392 198.192 760.051 198.007 759.781C197.825 759.508 197.562 759.366 197.221 759.356ZM202.831 762.569C202.88 762.205 202.68 761.948 202.23 761.798L201.312 761.529C200.538 761.262 200.163 760.82 200.189 760.201C200.212 759.736 200.424 759.355 200.824 759.059C201.228 758.759 201.701 758.613 202.245 758.619C202.779 758.626 203.212 758.782 203.544 759.088C203.879 759.391 204.04 759.786 204.027 760.274L203.148 760.27C203.155 760.006 203.072 759.791 202.899 759.625C202.727 759.459 202.497 759.373 202.211 759.366C201.905 759.36 201.641 759.435 201.42 759.591C201.215 759.737 201.096 759.929 201.063 760.167C201.021 760.473 201.208 760.696 201.625 760.836L202.069 760.958C202.675 761.114 203.104 761.318 203.358 761.568C203.612 761.819 203.729 762.13 203.71 762.501C203.69 762.83 203.583 763.116 203.388 763.36C203.192 763.604 202.932 763.792 202.606 763.922C202.281 764.049 201.934 764.107 201.566 764.098C201.007 764.091 200.544 763.928 200.18 763.609C199.815 763.287 199.639 762.874 199.652 762.369L200.536 762.374C200.536 762.67 200.631 762.908 200.819 763.087C201.008 763.266 201.267 763.355 201.596 763.355C201.918 763.362 202.196 763.295 202.431 763.155C202.665 763.012 202.799 762.817 202.831 762.569ZM209.394 761.383C209.328 761.92 209.184 762.403 208.959 762.833C208.734 763.263 208.456 763.585 208.124 763.8C207.792 764.011 207.424 764.112 207.021 764.103C206.409 764.09 205.94 763.883 205.614 763.482L205.141 766.031H204.257L205.526 758.717L206.327 758.712L206.229 759.303C206.666 758.834 207.188 758.606 207.797 758.619C208.305 758.632 208.7 758.819 208.983 759.181C209.267 759.542 209.416 760.04 209.433 760.675C209.436 760.883 209.428 761.085 209.408 761.28L209.394 761.383ZM208.524 761.28L208.549 760.87C208.549 760.395 208.458 760.032 208.275 759.781C208.096 759.527 207.836 759.394 207.494 759.381C206.983 759.368 206.542 759.61 206.171 760.108L205.727 762.643C205.925 763.111 206.282 763.352 206.796 763.365C207.235 763.375 207.608 763.204 207.914 762.853C208.223 762.498 208.427 761.974 208.524 761.28ZM213.041 758.619C213.484 758.626 213.863 758.746 214.179 758.98C214.494 759.215 214.727 759.539 214.877 759.952C215.03 760.362 215.082 760.812 215.033 761.3L215.023 761.407C214.962 761.922 214.809 762.387 214.564 762.804C214.32 763.217 214.005 763.539 213.617 763.771C213.23 764.002 212.805 764.111 212.343 764.098C211.903 764.091 211.524 763.971 211.205 763.736C210.889 763.502 210.658 763.183 210.512 762.779C210.365 762.376 210.313 761.931 210.355 761.446C210.404 760.899 210.552 760.408 210.8 759.972C211.047 759.535 211.365 759.199 211.752 758.961C212.143 758.72 212.572 758.606 213.041 758.619ZM211.244 761.451C211.221 761.656 211.221 761.869 211.244 762.091C211.277 762.475 211.391 762.781 211.586 763.009C211.785 763.237 212.048 763.355 212.377 763.365C212.67 763.375 212.94 763.303 213.188 763.15C213.435 762.994 213.643 762.76 213.812 762.447C213.982 762.135 214.091 761.788 214.14 761.407C214.166 761.108 214.171 760.855 214.154 760.65C214.115 760.257 213.996 759.946 213.798 759.718C213.599 759.49 213.336 759.369 213.007 759.356C212.551 759.347 212.164 759.526 211.845 759.894C211.526 760.261 211.329 760.743 211.254 761.339L211.244 761.451ZM217.445 758.712L217.318 759.381C217.794 758.86 218.334 758.606 218.939 758.619C219.438 758.632 219.805 758.805 220.043 759.137C220.281 759.469 220.368 759.936 220.307 760.538L219.73 764H218.847L219.428 760.523C219.447 760.364 219.449 760.216 219.433 760.079C219.377 759.623 219.109 759.391 218.627 759.381C218.096 759.371 217.631 759.654 217.23 760.23L216.576 764H215.692L216.61 758.717L217.445 758.712ZM224.364 762.569C224.413 762.205 224.213 761.948 223.764 761.798L222.846 761.529C222.071 761.262 221.697 760.82 221.723 760.201C221.745 759.736 221.957 759.355 222.357 759.059C222.761 758.759 223.235 758.613 223.778 758.619C224.312 758.626 224.745 758.782 225.077 759.088C225.412 759.391 225.574 759.786 225.561 760.274L224.682 760.27C224.688 760.006 224.605 759.791 224.433 759.625C224.26 759.459 224.031 759.373 223.744 759.366C223.438 759.36 223.174 759.435 222.953 759.591C222.748 759.737 222.629 759.929 222.597 760.167C222.554 760.473 222.742 760.696 223.158 760.836L223.603 760.958C224.208 761.114 224.638 761.318 224.892 761.568C225.146 761.819 225.263 762.13 225.243 762.501C225.224 762.83 225.116 763.116 224.921 763.36C224.726 763.604 224.465 763.792 224.14 763.922C223.814 764.049 223.467 764.107 223.1 764.098C222.54 764.091 222.077 763.928 221.713 763.609C221.348 763.287 221.173 762.874 221.186 762.369L222.069 762.374C222.069 762.67 222.164 762.908 222.353 763.087C222.541 763.266 222.8 763.355 223.129 763.355C223.451 763.362 223.729 763.295 223.964 763.155C224.198 763.012 224.332 762.817 224.364 762.569ZM227.099 764H226.22L227.138 758.717H228.017L227.099 764ZM227.826 756.788C227.976 756.782 228.1 756.827 228.197 756.925C228.298 757.019 228.349 757.145 228.349 757.301C228.345 757.454 228.295 757.579 228.197 757.677C228.103 757.774 227.979 757.826 227.826 757.833C227.673 757.84 227.548 757.796 227.45 757.701C227.353 757.607 227.305 757.483 227.309 757.33C227.312 757.177 227.361 757.05 227.455 756.949C227.549 756.848 227.673 756.795 227.826 756.788ZM233.339 761.383C233.274 761.923 233.126 762.41 232.895 762.843C232.663 763.276 232.383 763.596 232.055 763.805C231.726 764.013 231.361 764.112 230.961 764.103C230.323 764.09 229.849 763.85 229.54 763.385L229.359 764H228.544L229.848 756.5H230.731L230.199 759.303C230.622 758.834 231.137 758.606 231.742 758.619C232.25 758.632 232.646 758.819 232.929 759.181C233.212 759.542 233.362 760.04 233.378 760.675C233.381 760.883 233.371 761.085 233.349 761.28L233.339 761.383ZM232.499 760.87C232.509 760.395 232.429 760.032 232.26 759.781C232.09 759.527 231.832 759.394 231.483 759.381C230.933 759.368 230.468 759.645 230.087 760.211L229.691 762.511C229.887 763.048 230.253 763.323 230.79 763.336C231.135 763.349 231.436 763.246 231.693 763.028C231.954 762.81 232.151 762.506 232.284 762.115C232.418 761.721 232.489 761.306 232.499 760.87ZM234.999 764H234.12L235.419 756.5H236.303L234.999 764ZM238.729 764.098C238.072 764.085 237.558 763.842 237.187 763.37C236.815 762.898 236.659 762.294 236.718 761.559L236.742 761.349C236.798 760.825 236.952 760.346 237.206 759.913C237.463 759.48 237.776 759.155 238.144 758.937C238.511 758.715 238.909 758.609 239.335 758.619C239.879 758.632 240.305 758.813 240.614 759.161C240.924 759.509 241.093 759.981 241.122 760.577C241.132 760.789 241.125 761 241.103 761.212L241.049 761.617H237.597C237.538 762.096 237.616 762.503 237.831 762.838C238.049 763.173 238.373 763.347 238.803 763.36C239.324 763.373 239.805 763.139 240.248 762.657L240.756 763.087C240.535 763.406 240.248 763.657 239.896 763.839C239.548 764.018 239.159 764.104 238.729 764.098ZM239.291 759.356C238.926 759.347 238.607 759.47 238.334 759.728C238.064 759.985 237.849 760.367 237.689 760.875L240.258 760.88L240.277 760.802C240.329 760.392 240.263 760.051 240.077 759.781C239.895 759.508 239.633 759.366 239.291 759.356ZM244.511 764L245.312 759.415H244.496L244.618 758.717H245.429L245.517 758.092C245.601 757.561 245.806 757.146 246.132 756.847C246.474 756.534 246.91 756.381 247.44 756.388C247.606 756.388 247.816 756.415 248.07 756.471L247.963 757.208C247.807 757.175 247.649 757.156 247.489 757.149C247.183 757.149 246.934 757.245 246.742 757.438C246.553 757.626 246.436 757.879 246.391 758.194L246.312 758.717H247.406L247.284 759.415H246.19L245.395 764H244.511ZM250.434 758.619C250.876 758.626 251.256 758.746 251.571 758.98C251.887 759.215 252.12 759.539 252.27 759.952C252.423 760.362 252.475 760.812 252.426 761.3L252.416 761.407C252.354 761.922 252.201 762.387 251.957 762.804C251.713 763.217 251.397 763.539 251.01 763.771C250.622 764.002 250.198 764.111 249.735 764.098C249.296 764.091 248.917 763.971 248.598 763.736C248.282 763.502 248.051 763.183 247.904 762.779C247.758 762.376 247.706 761.931 247.748 761.446C247.797 760.899 247.945 760.408 248.192 759.972C248.44 759.535 248.757 759.199 249.145 758.961C249.535 758.72 249.965 758.606 250.434 758.619ZM248.637 761.451C248.614 761.656 248.614 761.869 248.637 762.091C248.669 762.475 248.783 762.781 248.979 763.009C249.177 763.237 249.441 763.355 249.77 763.365C250.062 763.375 250.333 763.303 250.58 763.15C250.827 762.994 251.036 762.76 251.205 762.447C251.374 762.135 251.483 761.788 251.532 761.407C251.558 761.108 251.563 760.855 251.547 760.65C251.508 760.257 251.389 759.946 251.19 759.718C250.992 759.49 250.728 759.369 250.399 759.356C249.944 759.347 249.556 759.526 249.237 759.894C248.918 760.261 248.721 760.743 248.646 761.339L248.637 761.451ZM256.371 759.522L255.956 759.479C255.39 759.479 254.944 759.734 254.618 760.245L253.969 764H253.085L254.003 758.717L254.857 758.712L254.726 759.327C255.1 758.836 255.541 758.596 256.049 758.609C256.156 758.609 256.296 758.634 256.469 758.683L256.371 759.522ZM262.099 764C262.076 763.906 262.064 763.813 262.064 763.722L262.079 763.443C261.594 763.893 261.08 764.111 260.536 764.098C260.071 764.091 259.691 763.945 259.398 763.658C259.109 763.368 258.977 763.007 259.003 762.574C259.035 762.014 259.28 761.578 259.735 761.266C260.194 760.95 260.797 760.792 261.542 760.792L262.465 760.797L262.523 760.377C262.556 760.061 262.494 759.812 262.338 759.63C262.185 759.444 261.954 759.348 261.645 759.342C261.342 759.335 261.073 759.41 260.839 759.566C260.608 759.719 260.466 759.923 260.414 760.177L259.525 760.182C259.555 759.872 259.675 759.599 259.887 759.361C260.098 759.12 260.37 758.935 260.702 758.805C261.034 758.671 261.378 758.608 261.732 758.614C262.283 758.627 262.711 758.795 263.017 759.117C263.323 759.436 263.451 759.861 263.402 760.392L262.973 763.009L262.948 763.385C262.942 763.564 262.961 763.741 263.007 763.917L262.997 764H262.099ZM260.712 763.316C260.995 763.323 261.262 763.256 261.513 763.116C261.767 762.973 261.985 762.776 262.167 762.525L262.357 761.437L261.688 761.432C261.132 761.432 260.705 761.52 260.409 761.695C260.113 761.871 259.945 762.12 259.906 762.442C259.877 762.69 259.934 762.896 260.077 763.062C260.224 763.225 260.435 763.31 260.712 763.316ZM266.43 763.365C266.745 763.372 267.03 763.281 267.284 763.092C267.538 762.9 267.704 762.649 267.782 762.34L268.617 762.335C268.568 762.667 268.435 762.97 268.217 763.243C268.002 763.517 267.73 763.73 267.401 763.883C267.073 764.036 266.736 764.107 266.391 764.098C265.951 764.091 265.578 763.977 265.272 763.756C264.97 763.531 264.747 763.22 264.604 762.823C264.46 762.423 264.411 761.974 264.457 761.476L264.481 761.231C264.543 760.724 264.691 760.27 264.926 759.869C265.16 759.469 265.466 759.158 265.844 758.937C266.221 758.712 266.638 758.606 267.094 758.619C267.647 758.632 268.09 758.818 268.422 759.176C268.754 759.534 268.92 759.988 268.92 760.538L268.095 760.533C268.088 760.188 267.992 759.91 267.807 759.698C267.621 759.483 267.37 759.369 267.055 759.356C266.596 759.347 266.213 759.518 265.907 759.869C265.604 760.221 265.416 760.712 265.341 761.344L265.326 761.471C265.307 761.679 265.303 761.894 265.316 762.115C265.339 762.496 265.447 762.797 265.639 763.019C265.831 763.24 266.094 763.355 266.43 763.365ZM271.557 763.365C271.872 763.372 272.157 763.281 272.411 763.092C272.665 762.9 272.831 762.649 272.909 762.34L273.744 762.335C273.695 762.667 273.562 762.97 273.344 763.243C273.129 763.517 272.857 763.73 272.528 763.883C272.2 764.036 271.863 764.107 271.518 764.098C271.078 764.091 270.705 763.977 270.399 763.756C270.097 763.531 269.874 763.22 269.73 762.823C269.587 762.423 269.538 761.974 269.584 761.476L269.608 761.231C269.67 760.724 269.818 760.27 270.053 759.869C270.287 759.469 270.593 759.158 270.971 758.937C271.348 758.712 271.765 758.606 272.221 758.619C272.774 758.632 273.217 758.818 273.549 759.176C273.881 759.534 274.047 759.988 274.047 760.538L273.222 760.533C273.215 760.188 273.119 759.91 272.934 759.698C272.748 759.483 272.497 759.369 272.182 759.356C271.723 759.347 271.34 759.518 271.034 759.869C270.731 760.221 270.543 760.712 270.468 761.344L270.453 761.471C270.434 761.679 270.43 761.894 270.443 762.115C270.466 762.496 270.574 762.797 270.766 763.019C270.958 763.24 271.221 763.355 271.557 763.365ZM277.807 763.478C277.393 763.904 276.868 764.111 276.229 764.098C275.725 764.085 275.351 763.904 275.106 763.556C274.866 763.207 274.776 762.732 274.838 762.13L275.404 758.717H276.288L275.717 762.145C275.701 762.288 275.697 762.428 275.707 762.564C275.723 762.799 275.793 762.983 275.917 763.116C276.041 763.25 276.213 763.321 276.435 763.331C277.066 763.351 277.554 763.095 277.899 762.564L278.563 758.717H279.447L278.529 764H277.694L277.807 763.478ZM283.139 759.522L282.724 759.479C282.157 759.479 281.711 759.734 281.386 760.245L280.736 764H279.853L280.771 758.717L281.625 758.712L281.493 759.327C281.868 758.836 282.309 758.596 282.816 758.609C282.924 758.609 283.064 758.634 283.236 758.683L283.139 759.522ZM286.22 764C286.197 763.906 286.186 763.813 286.186 763.722L286.2 763.443C285.715 763.893 285.201 764.111 284.657 764.098C284.192 764.091 283.812 763.945 283.52 763.658C283.23 763.368 283.098 763.007 283.124 762.574C283.157 762.014 283.401 761.578 283.856 761.266C284.315 760.95 284.918 760.792 285.663 760.792L286.586 760.797L286.645 760.377C286.677 760.061 286.615 759.812 286.459 759.63C286.306 759.444 286.075 759.348 285.766 759.342C285.463 759.335 285.194 759.41 284.96 759.566C284.729 759.719 284.587 759.923 284.535 760.177L283.646 760.182C283.676 759.872 283.796 759.599 284.008 759.361C284.219 759.12 284.491 758.935 284.823 758.805C285.155 758.671 285.499 758.608 285.854 758.614C286.404 758.627 286.832 758.795 287.138 759.117C287.444 759.436 287.572 759.861 287.523 760.392L287.094 763.009L287.069 763.385C287.063 763.564 287.082 763.741 287.128 763.917L287.118 764H286.22ZM284.833 763.316C285.116 763.323 285.383 763.256 285.634 763.116C285.888 762.973 286.106 762.776 286.288 762.525L286.479 761.437L285.81 761.432C285.253 761.432 284.826 761.52 284.53 761.695C284.234 761.871 284.066 762.12 284.027 762.442C283.998 762.69 284.055 762.896 284.198 763.062C284.345 763.225 284.556 763.31 284.833 763.316ZM290.551 763.365C290.867 763.372 291.151 763.281 291.405 763.092C291.659 762.9 291.825 762.649 291.903 762.34L292.738 762.335C292.689 762.667 292.556 762.97 292.338 763.243C292.123 763.517 291.851 763.73 291.522 763.883C291.194 764.036 290.857 764.107 290.512 764.098C290.072 764.091 289.7 763.977 289.394 763.756C289.091 763.531 288.868 763.22 288.725 762.823C288.581 762.423 288.533 761.974 288.578 761.476L288.603 761.231C288.664 760.724 288.812 760.27 289.047 759.869C289.281 759.469 289.587 759.158 289.965 758.937C290.342 758.712 290.759 758.606 291.215 758.619C291.768 758.632 292.211 758.818 292.543 759.176C292.875 759.534 293.041 759.988 293.041 760.538L292.216 760.533C292.209 760.188 292.113 759.91 291.928 759.698C291.742 759.483 291.492 759.369 291.176 759.356C290.717 759.347 290.334 759.518 290.028 759.869C289.726 760.221 289.537 760.712 289.462 761.344L289.447 761.471C289.428 761.679 289.424 761.894 289.438 762.115C289.46 762.496 289.568 762.797 289.76 763.019C289.952 763.24 290.215 763.355 290.551 763.365ZM295.341 762.667L297.221 758.717H298.197L295.062 764.879C294.626 765.735 294.066 766.158 293.383 766.148C293.262 766.145 293.085 766.116 292.851 766.061L292.929 765.328L293.158 765.353C293.438 765.366 293.679 765.302 293.881 765.162C294.086 765.025 294.267 764.802 294.423 764.493L294.74 763.888L293.827 758.717H294.75L295.341 762.667ZM303.471 758.619C303.913 758.626 304.293 758.746 304.608 758.98C304.924 759.215 305.157 759.539 305.307 759.952C305.46 760.362 305.512 760.812 305.463 761.3L305.453 761.407C305.391 761.922 305.238 762.387 304.994 762.804C304.75 763.217 304.434 763.539 304.047 763.771C303.66 764.002 303.235 764.111 302.772 764.098C302.333 764.091 301.954 763.971 301.635 763.736C301.319 763.502 301.088 763.183 300.941 762.779C300.795 762.376 300.743 761.931 300.785 761.446C300.834 760.899 300.982 760.408 301.229 759.972C301.477 759.535 301.794 759.199 302.182 758.961C302.572 758.72 303.002 758.606 303.471 758.619ZM301.674 761.451C301.651 761.656 301.651 761.869 301.674 762.091C301.706 762.475 301.82 762.781 302.016 763.009C302.214 763.237 302.478 763.355 302.807 763.365C303.1 763.375 303.37 763.303 303.617 763.15C303.865 762.994 304.073 762.76 304.242 762.447C304.411 762.135 304.521 761.788 304.569 761.407C304.595 761.108 304.6 760.855 304.584 760.65C304.545 760.257 304.426 759.946 304.228 759.718C304.029 759.49 303.765 759.369 303.437 759.356C302.981 759.347 302.593 759.526 302.274 759.894C301.955 760.261 301.758 760.743 301.684 761.339L301.674 761.451ZM306.552 764L307.353 759.415H306.537L306.659 758.717H307.47L307.558 758.092C307.642 757.561 307.847 757.146 308.173 756.847C308.515 756.534 308.951 756.381 309.481 756.388C309.647 756.388 309.857 756.415 310.111 756.471L310.004 757.208C309.848 757.175 309.69 757.156 309.53 757.149C309.224 757.149 308.975 757.245 308.783 757.438C308.594 757.626 308.477 757.879 308.432 758.194L308.354 758.717H309.447L309.325 759.415H308.231L307.436 764H306.552ZM313.734 758.712L313.622 759.303C314.065 758.834 314.6 758.606 315.229 758.619C315.564 758.626 315.847 758.702 316.078 758.849C316.312 758.995 316.474 759.202 316.562 759.469C317.056 758.889 317.641 758.606 318.314 758.619C318.842 758.632 319.231 758.81 319.481 759.151C319.732 759.493 319.825 759.952 319.76 760.528L319.179 764H318.3L318.876 760.519C318.896 760.349 318.896 760.195 318.876 760.055C318.814 759.612 318.524 759.386 318.007 759.376C317.685 759.369 317.392 759.47 317.128 759.679C316.868 759.884 316.7 760.154 316.625 760.489L316.024 764H315.136L315.722 760.523C315.764 760.162 315.709 759.884 315.556 759.688C315.406 759.493 315.172 759.392 314.853 759.386C314.302 759.373 313.865 759.623 313.539 760.138L312.87 764H311.986L312.904 758.717L313.734 758.712ZM323.778 764C323.756 763.906 323.744 763.813 323.744 763.722L323.759 763.443C323.274 763.893 322.759 764.111 322.216 764.098C321.75 764.091 321.371 763.945 321.078 763.658C320.788 763.368 320.657 763.007 320.683 762.574C320.715 762.014 320.959 761.578 321.415 761.266C321.874 760.95 322.476 760.792 323.222 760.792L324.145 760.797L324.203 760.377C324.236 760.061 324.174 759.812 324.018 759.63C323.865 759.444 323.633 759.348 323.324 759.342C323.021 759.335 322.753 759.41 322.519 759.566C322.287 759.719 322.146 759.923 322.094 760.177L321.205 760.182C321.234 759.872 321.355 759.599 321.566 759.361C321.778 759.12 322.05 758.935 322.382 758.805C322.714 758.671 323.057 758.608 323.412 758.614C323.962 758.627 324.39 758.795 324.696 759.117C325.002 759.436 325.131 759.861 325.082 760.392L324.652 763.009L324.628 763.385C324.621 763.564 324.641 763.741 324.687 763.917L324.677 764H323.778ZM322.392 763.316C322.675 763.323 322.942 763.256 323.192 763.116C323.446 762.973 323.664 762.776 323.847 762.525L324.037 761.437L323.368 761.432C322.812 761.432 322.385 761.52 322.089 761.695C321.793 761.871 321.625 762.12 321.586 762.442C321.557 762.69 321.614 762.896 321.757 763.062C321.903 763.225 322.115 763.31 322.392 763.316ZM329.164 759.522L328.749 759.479C328.183 759.479 327.737 759.734 327.411 760.245L326.762 764H325.878L326.796 758.717L327.65 758.712L327.519 759.327C327.893 758.836 328.334 758.596 328.842 758.609C328.949 758.609 329.089 758.634 329.262 758.683L329.164 759.522ZM331.103 761.563L330.409 762.184L330.097 764H329.213L330.517 756.5H331.4L330.619 760.982L331.161 760.436L333.036 758.717H334.184L331.757 760.968L333.427 764H332.46L331.103 761.563ZM337.45 762.569C337.499 762.205 337.299 761.948 336.85 761.798L335.932 761.529C335.157 761.262 334.783 760.82 334.809 760.201C334.831 759.736 335.043 759.355 335.443 759.059C335.847 758.759 336.321 758.613 336.864 758.619C337.398 758.626 337.831 758.782 338.163 759.088C338.498 759.391 338.66 759.786 338.646 760.274L337.768 760.27C337.774 760.006 337.691 759.791 337.519 759.625C337.346 759.459 337.117 759.373 336.83 759.366C336.524 759.36 336.26 759.435 336.039 759.591C335.834 759.737 335.715 759.929 335.683 760.167C335.64 760.473 335.827 760.696 336.244 760.836L336.688 760.958C337.294 761.114 337.724 761.318 337.978 761.568C338.231 761.819 338.349 762.13 338.329 762.501C338.31 762.83 338.202 763.116 338.007 763.36C337.812 763.604 337.551 763.792 337.226 763.922C336.9 764.049 336.553 764.107 336.186 764.098C335.626 764.091 335.163 763.928 334.799 763.609C334.434 763.287 334.258 762.874 334.271 762.369L335.155 762.374C335.155 762.67 335.25 762.908 335.438 763.087C335.627 763.266 335.886 763.355 336.215 763.355C336.537 763.362 336.815 763.295 337.05 763.155C337.284 763.012 337.418 762.817 337.45 762.569Z" fill="#FF7D7D"/>
<line x1="33" y1="118" x2="370" y2="118" stroke="#1C5991" stroke-width="2"/>
<path d="M40.5469 186H39.416L35.1211 179.426V186H33.9902V177.469H35.1211L39.4277 184.072V177.469H40.5469V186ZM42.0879 182.771C42.0879 182.15 42.209 181.592 42.4512 181.096C42.6973 180.6 43.0371 180.217 43.4707 179.947C43.9082 179.678 44.4062 179.543 44.9648 179.543C45.8281 179.543 46.5254 179.842 47.0566 180.439C47.5918 181.037 47.8594 181.832 47.8594 182.824V182.9C47.8594 183.518 47.7402 184.072 47.502 184.564C47.2676 185.053 46.9297 185.434 46.4883 185.707C46.0508 185.98 45.5469 186.117 44.9766 186.117C44.1172 186.117 43.4199 185.818 42.8848 185.221C42.3535 184.623 42.0879 183.832 42.0879 182.848V182.771ZM43.1777 182.9C43.1777 183.604 43.3398 184.168 43.6641 184.594C43.9922 185.02 44.4297 185.232 44.9766 185.232C45.5273 185.232 45.9648 185.018 46.2891 184.588C46.6133 184.154 46.7754 183.549 46.7754 182.771C46.7754 182.076 46.6094 181.514 46.2773 181.084C45.9492 180.65 45.5117 180.434 44.9648 180.434C44.4297 180.434 43.998 180.646 43.6699 181.072C43.3418 181.498 43.1777 182.107 43.1777 182.9ZM51.2168 184.529L52.7871 179.66H53.8945L51.6211 186H50.7949L48.498 179.66H49.6055L51.2168 184.529ZM55.1543 186.732H54.2227L57.7852 177.469H58.7109L55.1543 186.732ZM60.0527 186V177.469H62.4609C63.2031 177.469 63.8594 177.633 64.4297 177.961C65 178.289 65.4395 178.756 65.748 179.361C66.0605 179.967 66.2188 180.662 66.2227 181.447V181.992C66.2227 182.797 66.0664 183.502 65.7539 184.107C65.4453 184.713 65.002 185.178 64.4238 185.502C63.8496 185.826 63.1797 185.992 62.4141 186H60.0527ZM61.1777 178.395V185.08H62.3613C63.2285 185.08 63.9023 184.811 64.3828 184.271C64.8672 183.732 65.1094 182.965 65.1094 181.969V181.471C65.1094 180.502 64.8809 179.75 64.4238 179.215C63.9707 178.676 63.3262 178.402 62.4902 178.395H61.1777ZM70.3887 186.117C69.5293 186.117 68.8301 185.836 68.291 185.273C67.752 184.707 67.4824 183.951 67.4824 183.006V182.807C67.4824 182.178 67.6016 181.617 67.8398 181.125C68.082 180.629 68.418 180.242 68.8477 179.965C69.2812 179.684 69.75 179.543 70.2539 179.543C71.0781 179.543 71.7188 179.814 72.1758 180.357C72.6328 180.9 72.8613 181.678 72.8613 182.689V183.141H68.5664C68.582 183.766 68.7637 184.271 69.1113 184.658C69.4629 185.041 69.9082 185.232 70.4473 185.232C70.8301 185.232 71.1543 185.154 71.4199 184.998C71.6855 184.842 71.918 184.635 72.1172 184.377L72.7793 184.893C72.248 185.709 71.4512 186.117 70.3887 186.117ZM70.2539 180.434C69.8164 180.434 69.4492 180.594 69.1523 180.914C68.8555 181.23 68.6719 181.676 68.6016 182.25H71.7773V182.168C71.7461 181.617 71.5977 181.191 71.332 180.891C71.0664 180.586 70.707 180.434 70.2539 180.434ZM76.6641 185.232C77.0508 185.232 77.3887 185.115 77.6777 184.881C77.9668 184.646 78.127 184.354 78.1582 184.002H79.1836C79.1641 184.365 79.0391 184.711 78.8086 185.039C78.5781 185.367 78.2695 185.629 77.8828 185.824C77.5 186.02 77.0938 186.117 76.6641 186.117C75.8008 186.117 75.1133 185.83 74.6016 185.256C74.0938 184.678 73.8398 183.889 73.8398 182.889V182.707C73.8398 182.09 73.9531 181.541 74.1797 181.061C74.4062 180.58 74.7305 180.207 75.1523 179.941C75.5781 179.676 76.0801 179.543 76.6582 179.543C77.3691 179.543 77.959 179.756 78.4277 180.182C78.9004 180.607 79.1523 181.16 79.1836 181.84H78.1582C78.127 181.43 77.9707 181.094 77.6895 180.832C77.4121 180.566 77.0684 180.434 76.6582 180.434C76.1074 180.434 75.6797 180.633 75.375 181.031C75.0742 181.426 74.9238 181.998 74.9238 182.748V182.953C74.9238 183.684 75.0742 184.246 75.375 184.641C75.6758 185.035 76.1055 185.232 76.6641 185.232ZM88.8574 186H83.2676V185.221L86.2207 181.939C86.6582 181.443 86.959 181.041 87.123 180.732C87.291 180.42 87.375 180.098 87.375 179.766C87.375 179.32 87.2402 178.955 86.9707 178.67C86.7012 178.385 86.3418 178.242 85.8926 178.242C85.3535 178.242 84.9336 178.396 84.6328 178.705C84.3359 179.01 84.1875 179.436 84.1875 179.982H83.1035C83.1035 179.197 83.3555 178.562 83.8594 178.078C84.3672 177.594 85.0449 177.352 85.8926 177.352C86.6855 177.352 87.3125 177.561 87.7734 177.979C88.2344 178.393 88.4648 178.945 88.4648 179.637C88.4648 180.477 87.9297 181.477 86.8594 182.637L84.5742 185.115H88.8574V186ZM95.3555 182.361C95.3555 183.631 95.1387 184.574 94.7051 185.191C94.2715 185.809 93.5938 186.117 92.6719 186.117C91.7617 186.117 91.0879 185.816 90.6504 185.215C90.2129 184.609 89.9863 183.707 89.9707 182.508V181.061C89.9707 179.807 90.1875 178.875 90.6211 178.266C91.0547 177.656 91.7344 177.352 92.6602 177.352C93.5781 177.352 94.2539 177.646 94.6875 178.236C95.1211 178.822 95.3438 179.729 95.3555 180.955V182.361ZM94.2715 180.879C94.2715 179.961 94.1426 179.293 93.8848 178.875C93.627 178.453 93.2188 178.242 92.6602 178.242C92.1055 178.242 91.7012 178.451 91.4473 178.869C91.1934 179.287 91.0625 179.93 91.0547 180.797V182.531C91.0547 183.453 91.1875 184.135 91.4531 184.576C91.7227 185.014 92.1289 185.232 92.6719 185.232C93.207 185.232 93.6035 185.025 93.8613 184.611C94.123 184.197 94.2598 183.545 94.2715 182.654V180.879ZM102.334 186H96.7441V185.221L99.6973 181.939C100.135 181.443 100.436 181.041 100.6 180.732C100.768 180.42 100.852 180.098 100.852 179.766C100.852 179.32 100.717 178.955 100.447 178.67C100.178 178.385 99.8184 178.242 99.3691 178.242C98.8301 178.242 98.4102 178.396 98.1094 178.705C97.8125 179.01 97.6641 179.436 97.6641 179.982H96.5801C96.5801 179.197 96.832 178.562 97.3359 178.078C97.8438 177.594 98.5215 177.352 99.3691 177.352C100.162 177.352 100.789 177.561 101.25 177.979C101.711 178.393 101.941 178.945 101.941 179.637C101.941 180.477 101.406 181.477 100.336 182.637L98.0508 185.115H102.334V186ZM108.832 182.361C108.832 183.631 108.615 184.574 108.182 185.191C107.748 185.809 107.07 186.117 106.148 186.117C105.238 186.117 104.564 185.816 104.127 185.215C103.689 184.609 103.463 183.707 103.447 182.508V181.061C103.447 179.807 103.664 178.875 104.098 178.266C104.531 177.656 105.211 177.352 106.137 177.352C107.055 177.352 107.73 177.646 108.164 178.236C108.598 178.822 108.82 179.729 108.832 180.955V182.361ZM107.748 180.879C107.748 179.961 107.619 179.293 107.361 178.875C107.104 178.453 106.695 178.242 106.137 178.242C105.582 178.242 105.178 178.451 104.924 178.869C104.67 179.287 104.539 179.93 104.531 180.797V182.531C104.531 183.453 104.664 184.135 104.93 184.576C105.199 185.014 105.605 185.232 106.148 185.232C106.684 185.232 107.08 185.025 107.338 184.611C107.6 184.197 107.736 183.545 107.748 182.654V180.879Z" fill="black"/>
<path d="M173.299 112H167.709V111.221L170.662 107.939C171.1 107.443 171.4 107.041 171.564 106.732C171.732 106.42 171.816 106.098 171.816 105.766C171.816 105.32 171.682 104.955 171.412 104.67C171.143 104.385 170.783 104.242 170.334 104.242C169.795 104.242 169.375 104.396 169.074 104.705C168.777 105.01 168.629 105.436 168.629 105.982H167.545C167.545 105.197 167.797 104.562 168.301 104.078C168.809 103.594 169.486 103.352 170.334 103.352C171.127 103.352 171.754 103.561 172.215 103.979C172.676 104.393 172.906 104.945 172.906 105.637C172.906 106.477 172.371 107.477 171.301 108.637L169.016 111.115H173.299V112ZM179.797 108.361C179.797 109.631 179.58 110.574 179.146 111.191C178.713 111.809 178.035 112.117 177.113 112.117C176.203 112.117 175.529 111.816 175.092 111.215C174.654 110.609 174.428 109.707 174.412 108.508V107.061C174.412 105.807 174.629 104.875 175.062 104.266C175.496 103.656 176.176 103.352 177.102 103.352C178.02 103.352 178.695 103.646 179.129 104.236C179.562 104.822 179.785 105.729 179.797 106.955V108.361ZM178.713 106.879C178.713 105.961 178.584 105.293 178.326 104.875C178.068 104.453 177.66 104.242 177.102 104.242C176.547 104.242 176.143 104.451 175.889 104.869C175.635 105.287 175.504 105.93 175.496 106.797V108.531C175.496 109.453 175.629 110.135 175.895 110.576C176.164 111.014 176.57 111.232 177.113 111.232C177.648 111.232 178.045 111.025 178.303 110.611C178.564 110.197 178.701 109.545 178.713 108.654V106.879ZM184.748 112H183.658V104.775L181.473 105.578V104.594L184.578 103.428H184.748V112ZM192.078 108.25C191.852 108.52 191.58 108.736 191.264 108.9C190.951 109.064 190.607 109.146 190.232 109.146C189.74 109.146 189.311 109.025 188.943 108.783C188.58 108.541 188.299 108.201 188.1 107.764C187.9 107.322 187.801 106.836 187.801 106.305C187.801 105.734 187.908 105.221 188.123 104.764C188.342 104.307 188.65 103.957 189.049 103.715C189.447 103.473 189.912 103.352 190.443 103.352C191.287 103.352 191.951 103.668 192.436 104.301C192.924 104.93 193.168 105.789 193.168 106.879V107.195C193.168 108.855 192.84 110.068 192.184 110.834C191.527 111.596 190.537 111.986 189.213 112.006H189.002V111.092H189.23C190.125 111.076 190.812 110.844 191.293 110.395C191.773 109.941 192.035 109.227 192.078 108.25ZM190.408 108.25C190.771 108.25 191.105 108.139 191.41 107.916C191.719 107.693 191.943 107.418 192.084 107.09V106.656C192.084 105.945 191.93 105.367 191.621 104.922C191.312 104.477 190.922 104.254 190.449 104.254C189.973 104.254 189.59 104.438 189.301 104.805C189.012 105.168 188.867 105.648 188.867 106.246C188.867 106.828 189.006 107.309 189.283 107.688C189.564 108.062 189.939 108.25 190.408 108.25ZM200.012 108.361C200.012 109.631 199.795 110.574 199.361 111.191C198.928 111.809 198.25 112.117 197.328 112.117C196.418 112.117 195.744 111.816 195.307 111.215C194.869 110.609 194.643 109.707 194.627 108.508V107.061C194.627 105.807 194.844 104.875 195.277 104.266C195.711 103.656 196.391 103.352 197.316 103.352C198.234 103.352 198.91 103.646 199.344 104.236C199.777 104.822 200 105.729 200.012 106.955V108.361ZM198.928 106.879C198.928 105.961 198.799 105.293 198.541 104.875C198.283 104.453 197.875 104.242 197.316 104.242C196.762 104.242 196.357 104.451 196.104 104.869C195.85 105.287 195.719 105.93 195.711 106.797V108.531C195.711 109.453 195.844 110.135 196.109 110.576C196.379 111.014 196.785 111.232 197.328 111.232C197.863 111.232 198.26 111.025 198.518 110.611C198.779 110.197 198.916 109.545 198.928 108.654V106.879ZM206.75 108.361C206.75 109.631 206.533 110.574 206.1 111.191C205.666 111.809 204.988 112.117 204.066 112.117C203.156 112.117 202.482 111.816 202.045 111.215C201.607 110.609 201.381 109.707 201.365 108.508V107.061C201.365 105.807 201.582 104.875 202.016 104.266C202.449 103.656 203.129 103.352 204.055 103.352C204.973 103.352 205.648 103.646 206.082 104.236C206.516 104.822 206.738 105.729 206.75 106.955V108.361ZM205.666 106.879C205.666 105.961 205.537 105.293 205.279 104.875C205.021 104.453 204.613 104.242 204.055 104.242C203.5 104.242 203.096 104.451 202.842 104.869C202.588 105.287 202.457 105.93 202.449 106.797V108.531C202.449 109.453 202.582 110.135 202.848 110.576C203.117 111.014 203.523 111.232 204.066 111.232C204.602 111.232 204.998 111.025 205.256 110.611C205.518 110.197 205.654 109.545 205.666 108.654V106.879ZM213.488 108.361C213.488 109.631 213.271 110.574 212.838 111.191C212.404 111.809 211.727 112.117 210.805 112.117C209.895 112.117 209.221 111.816 208.783 111.215C208.346 110.609 208.119 109.707 208.104 108.508V107.061C208.104 105.807 208.32 104.875 208.754 104.266C209.188 103.656 209.867 103.352 210.793 103.352C211.711 103.352 212.387 103.646 212.82 104.236C213.254 104.822 213.477 105.729 213.488 106.955V108.361ZM212.404 106.879C212.404 105.961 212.275 105.293 212.018 104.875C211.76 104.453 211.352 104.242 210.793 104.242C210.238 104.242 209.834 104.451 209.58 104.869C209.326 105.287 209.195 105.93 209.188 106.797V108.531C209.188 109.453 209.32 110.135 209.586 110.576C209.855 111.014 210.262 111.232 210.805 111.232C211.34 111.232 211.736 111.025 211.994 110.611C212.256 110.197 212.393 109.545 212.404 108.654V106.879ZM219.031 108.25C218.805 108.52 218.533 108.736 218.217 108.9C217.904 109.064 217.561 109.146 217.186 109.146C216.693 109.146 216.264 109.025 215.896 108.783C215.533 108.541 215.252 108.201 215.053 107.764C214.854 107.322 214.754 106.836 214.754 106.305C214.754 105.734 214.861 105.221 215.076 104.764C215.295 104.307 215.604 103.957 216.002 103.715C216.4 103.473 216.865 103.352 217.396 103.352C218.24 103.352 218.904 103.668 219.389 104.301C219.877 104.93 220.121 105.789 220.121 106.879V107.195C220.121 108.855 219.793 110.068 219.137 110.834C218.48 111.596 217.49 111.986 216.166 112.006H215.955V111.092H216.184C217.078 111.076 217.766 110.844 218.246 110.395C218.727 109.941 218.988 109.227 219.031 108.25ZM217.361 108.25C217.725 108.25 218.059 108.139 218.363 107.916C218.672 107.693 218.896 107.418 219.037 107.09V106.656C219.037 105.945 218.883 105.367 218.574 104.922C218.266 104.477 217.875 104.254 217.402 104.254C216.926 104.254 216.543 104.438 216.254 104.805C215.965 105.168 215.82 105.648 215.82 106.246C215.82 106.828 215.959 107.309 216.236 107.688C216.518 108.062 216.893 108.25 217.361 108.25ZM225.77 108.25C225.543 108.52 225.271 108.736 224.955 108.9C224.643 109.064 224.299 109.146 223.924 109.146C223.432 109.146 223.002 109.025 222.635 108.783C222.271 108.541 221.99 108.201 221.791 107.764C221.592 107.322 221.492 106.836 221.492 106.305C221.492 105.734 221.6 105.221 221.814 104.764C222.033 104.307 222.342 103.957 222.74 103.715C223.139 103.473 223.604 103.352 224.135 103.352C224.979 103.352 225.643 103.668 226.127 104.301C226.615 104.93 226.859 105.789 226.859 106.879V107.195C226.859 108.855 226.531 110.068 225.875 110.834C225.219 111.596 224.229 111.986 222.904 112.006H222.693V111.092H222.922C223.816 111.076 224.504 110.844 224.984 110.395C225.465 109.941 225.727 109.227 225.77 108.25ZM224.1 108.25C224.463 108.25 224.797 108.139 225.102 107.916C225.41 107.693 225.635 107.418 225.775 107.09V106.656C225.775 105.945 225.621 105.367 225.312 104.922C225.004 104.477 224.613 104.254 224.141 104.254C223.664 104.254 223.281 104.438 222.992 104.805C222.703 105.168 222.559 105.648 222.559 106.246C222.559 106.828 222.697 107.309 222.975 107.688C223.256 108.062 223.631 108.25 224.1 108.25Z" fill="black"/>
<ellipse cx="355.5" cy="182" rx="14.5" ry="14" fill="#FF7D7D"/>
<path d="M355.524 186.026L350.746 180.059L360.231 180.003L355.524 186.026Z" fill="white"/>
<rect x="30" y="231" width="343" height="40" rx="8" fill="#FF7D7D"/>
<path d="M187.504 251.197C186.539 250.92 185.836 250.58 185.395 250.178C184.957 249.771 184.738 249.271 184.738 248.678C184.738 248.006 185.006 247.451 185.541 247.014C186.08 246.572 186.779 246.352 187.639 246.352C188.225 246.352 188.746 246.465 189.203 246.691C189.664 246.918 190.02 247.23 190.27 247.629C190.523 248.027 190.65 248.463 190.65 248.936H189.52C189.52 248.42 189.355 248.016 189.027 247.723C188.699 247.426 188.236 247.277 187.639 247.277C187.084 247.277 186.65 247.4 186.338 247.646C186.029 247.889 185.875 248.227 185.875 248.66C185.875 249.008 186.021 249.303 186.314 249.545C186.611 249.783 187.113 250.002 187.82 250.201C188.531 250.4 189.086 250.621 189.484 250.863C189.887 251.102 190.184 251.381 190.375 251.701C190.57 252.021 190.668 252.398 190.668 252.832C190.668 253.523 190.398 254.078 189.859 254.496C189.32 254.91 188.6 255.117 187.697 255.117C187.111 255.117 186.564 255.006 186.057 254.783C185.549 254.557 185.156 254.248 184.879 253.857C184.605 253.467 184.469 253.023 184.469 252.527H185.6C185.6 253.043 185.789 253.451 186.168 253.752C186.551 254.049 187.061 254.197 187.697 254.197C188.291 254.197 188.746 254.076 189.062 253.834C189.379 253.592 189.537 253.262 189.537 252.844C189.537 252.426 189.391 252.104 189.098 251.877C188.805 251.646 188.273 251.42 187.504 251.197ZM198.121 246.469V252.27C198.117 253.074 197.863 253.732 197.359 254.244C196.859 254.756 196.18 255.043 195.32 255.105L195.021 255.117C194.088 255.117 193.344 254.865 192.789 254.361C192.234 253.857 191.953 253.164 191.945 252.281V246.469H193.059V252.246C193.059 252.863 193.229 253.344 193.568 253.688C193.908 254.027 194.393 254.197 195.021 254.197C195.658 254.197 196.145 254.027 196.48 253.688C196.82 253.348 196.99 252.869 196.99 252.252V246.469H198.121ZM199.896 255V246.469H202.686C203.611 246.469 204.307 246.66 204.771 247.043C205.24 247.426 205.475 247.992 205.475 248.742C205.475 249.141 205.361 249.494 205.135 249.803C204.908 250.107 204.6 250.344 204.209 250.512C204.67 250.641 205.033 250.887 205.299 251.25C205.568 251.609 205.703 252.039 205.703 252.539C205.703 253.305 205.455 253.906 204.959 254.344C204.463 254.781 203.762 255 202.855 255H199.896ZM201.021 251.01V254.08H202.879C203.402 254.08 203.814 253.945 204.115 253.676C204.42 253.402 204.572 253.027 204.572 252.551C204.572 251.523 204.014 251.01 202.896 251.01H201.021ZM201.021 250.107H202.721C203.213 250.107 203.605 249.984 203.898 249.738C204.195 249.492 204.344 249.158 204.344 248.736C204.344 248.268 204.207 247.928 203.934 247.717C203.66 247.502 203.244 247.395 202.686 247.395H201.021V250.107ZM208.826 246.469L211.615 253.43L214.404 246.469H215.863V255H214.738V251.678L214.844 248.092L212.043 255H211.182L208.387 248.109L208.498 251.678V255H207.373V246.469H208.826ZM219.057 255H217.932V246.469H219.057V255ZM226.838 247.395H224.096V255H222.977V247.395H220.24V246.469H226.838V247.395Z" fill="white"/>
</svg>
