<svg width="411" height="814" viewBox="0 0 411 814" fill="none" xmlns="http://www.w3.org/2000/svg">
<rect width="411" height="814" fill="white"/>
<rect x="142" y="348" width="128" height="128" rx="10" fill="white"/>
<rect x="158" y="407.13" width="19" height="32.8696" fill="#C4C4C4"/>
<rect x="158" y="407.13" width="19" height="32.8696" fill="#63B1FA"/>
<rect x="196" y="414.957" width="19" height="25.0435" fill="#FF7D7D"/>
<rect x="215" y="368" width="19" height="72" fill="#E6DE32"/>
<rect x="234" y="393.043" width="19" height="46.9565" fill="#748DE8"/>
<rect x="177" y="389.913" width="19" height="50.087" fill="#FA9A0A"/>
<path d="M186.806 484.974H184.468V489H183.148V479.047H186.443C187.564 479.047 188.426 479.302 189.027 479.812C189.633 480.323 189.937 481.066 189.937 482.041C189.937 482.661 189.768 483.201 189.431 483.661C189.098 484.121 188.633 484.465 188.036 484.693L190.374 488.918V489H188.966L186.806 484.974ZM184.468 483.9H186.484C187.136 483.9 187.653 483.732 188.036 483.395C188.424 483.057 188.617 482.606 188.617 482.041C188.617 481.426 188.433 480.954 188.063 480.626C187.699 480.298 187.17 480.132 186.478 480.127H184.468V483.9ZM194.653 489.137C193.651 489.137 192.835 488.809 192.206 488.152C191.577 487.492 191.263 486.61 191.263 485.507V485.274C191.263 484.541 191.402 483.887 191.68 483.312C191.962 482.734 192.354 482.283 192.855 481.959C193.361 481.631 193.908 481.467 194.496 481.467C195.458 481.467 196.205 481.784 196.738 482.417C197.271 483.05 197.538 483.957 197.538 485.138V485.664H192.527C192.546 486.393 192.757 486.983 193.163 487.435C193.573 487.881 194.093 488.104 194.722 488.104C195.168 488.104 195.547 488.013 195.856 487.831C196.166 487.649 196.438 487.407 196.67 487.106L197.442 487.708C196.823 488.66 195.893 489.137 194.653 489.137ZM194.496 482.506C193.986 482.506 193.557 482.693 193.211 483.066C192.865 483.436 192.65 483.955 192.568 484.625H196.273V484.529C196.237 483.887 196.064 483.39 195.754 483.039C195.444 482.684 195.025 482.506 194.496 482.506ZM203.314 487.038C203.314 486.696 203.185 486.432 202.925 486.245C202.67 486.054 202.221 485.89 201.578 485.753C200.94 485.616 200.432 485.452 200.054 485.261C199.68 485.069 199.402 484.841 199.22 484.577C199.042 484.313 198.953 483.998 198.953 483.634C198.953 483.028 199.208 482.515 199.719 482.096C200.234 481.676 200.89 481.467 201.688 481.467C202.526 481.467 203.205 481.683 203.725 482.116C204.249 482.549 204.511 483.103 204.511 483.777H203.239C203.239 483.431 203.091 483.132 202.795 482.882C202.503 482.631 202.134 482.506 201.688 482.506C201.227 482.506 200.867 482.606 200.607 482.807C200.348 483.007 200.218 483.269 200.218 483.593C200.218 483.898 200.339 484.128 200.58 484.283C200.822 484.438 201.257 484.586 201.886 484.728C202.519 484.869 203.032 485.037 203.424 485.233C203.816 485.429 204.105 485.666 204.292 485.944C204.483 486.218 204.579 486.553 204.579 486.949C204.579 487.61 204.315 488.141 203.786 488.542C203.257 488.938 202.572 489.137 201.729 489.137C201.136 489.137 200.612 489.032 200.156 488.822C199.701 488.613 199.343 488.321 199.083 487.947C198.828 487.569 198.7 487.161 198.7 486.724H199.965C199.988 487.147 200.156 487.485 200.471 487.735C200.79 487.981 201.209 488.104 201.729 488.104C202.207 488.104 202.59 488.009 202.877 487.817C203.169 487.621 203.314 487.362 203.314 487.038ZM210.793 488.269C210.301 488.847 209.578 489.137 208.626 489.137C207.838 489.137 207.236 488.909 206.821 488.453C206.411 487.993 206.204 487.314 206.199 486.416V481.604H207.464V486.382C207.464 487.503 207.92 488.063 208.831 488.063C209.797 488.063 210.44 487.703 210.759 486.983V481.604H212.023V489H210.82L210.793 488.269ZM215.325 489H214.061V478.5H215.325V489ZM219.071 479.812V481.604H220.452V482.581H219.071V487.168C219.071 487.464 219.133 487.688 219.256 487.838C219.379 487.984 219.589 488.057 219.885 488.057C220.031 488.057 220.231 488.029 220.486 487.975V489C220.154 489.091 219.83 489.137 219.516 489.137C218.951 489.137 218.524 488.966 218.237 488.624C217.95 488.282 217.807 487.797 217.807 487.168V482.581H216.46V481.604H217.807V479.812H219.071ZM226.242 487.038C226.242 486.696 226.112 486.432 225.853 486.245C225.597 486.054 225.148 485.89 224.506 485.753C223.868 485.616 223.36 485.452 222.981 485.261C222.608 485.069 222.33 484.841 222.147 484.577C221.97 484.313 221.881 483.998 221.881 483.634C221.881 483.028 222.136 482.515 222.646 482.096C223.161 481.676 223.818 481.467 224.615 481.467C225.454 481.467 226.133 481.683 226.652 482.116C227.176 482.549 227.438 483.103 227.438 483.777H226.167C226.167 483.431 226.019 483.132 225.723 482.882C225.431 482.631 225.062 482.506 224.615 482.506C224.155 482.506 223.795 482.606 223.535 482.807C223.275 483.007 223.146 483.269 223.146 483.593C223.146 483.898 223.266 484.128 223.508 484.283C223.749 484.438 224.185 484.586 224.813 484.728C225.447 484.869 225.96 485.037 226.352 485.233C226.743 485.429 227.033 485.666 227.22 485.944C227.411 486.218 227.507 486.553 227.507 486.949C227.507 487.61 227.243 488.141 226.714 488.542C226.185 488.938 225.499 489.137 224.656 489.137C224.064 489.137 223.54 489.032 223.084 488.822C222.628 488.613 222.271 488.321 222.011 487.947C221.756 487.569 221.628 487.161 221.628 486.724H222.893C222.915 487.147 223.084 487.485 223.398 487.735C223.717 487.981 224.137 488.104 224.656 488.104C225.135 488.104 225.518 488.009 225.805 487.817C226.096 487.621 226.242 487.362 226.242 487.038Z" fill="#1C5991"/>
<path d="M109.99 768V759.469H112.398C113.141 759.469 113.797 759.633 114.367 759.961C114.938 760.289 115.377 760.756 115.686 761.361C115.998 761.967 116.156 762.662 116.16 763.447V763.992C116.16 764.797 116.004 765.502 115.691 766.107C115.383 766.713 114.939 767.178 114.361 767.502C113.787 767.826 113.117 767.992 112.352 768H109.99ZM111.115 760.395V767.08H112.299C113.166 767.08 113.84 766.811 114.32 766.271C114.805 765.732 115.047 764.965 115.047 763.969V763.471C115.047 762.502 114.818 761.75 114.361 761.215C113.908 760.676 113.264 760.402 112.428 760.395H111.115ZM120.326 768.117C119.467 768.117 118.768 767.836 118.229 767.273C117.689 766.707 117.42 765.951 117.42 765.006V764.807C117.42 764.178 117.539 763.617 117.777 763.125C118.02 762.629 118.355 762.242 118.785 761.965C119.219 761.684 119.688 761.543 120.191 761.543C121.016 761.543 121.656 761.814 122.113 762.357C122.57 762.9 122.799 763.678 122.799 764.689V765.141H118.504C118.52 765.766 118.701 766.271 119.049 766.658C119.4 767.041 119.846 767.232 120.385 767.232C120.768 767.232 121.092 767.154 121.357 766.998C121.623 766.842 121.855 766.635 122.055 766.377L122.717 766.893C122.186 767.709 121.389 768.117 120.326 768.117ZM120.191 762.434C119.754 762.434 119.387 762.594 119.09 762.914C118.793 763.23 118.609 763.676 118.539 764.25H121.715V764.168C121.684 763.617 121.535 763.191 121.27 762.891C121.004 762.586 120.645 762.434 120.191 762.434ZM126.068 766.529L127.639 761.66H128.746L126.473 768H125.646L123.35 761.66H124.457L126.068 766.529ZM132.338 768.117C131.479 768.117 130.779 767.836 130.24 767.273C129.701 766.707 129.432 765.951 129.432 765.006V764.807C129.432 764.178 129.551 763.617 129.789 763.125C130.031 762.629 130.367 762.242 130.797 761.965C131.23 761.684 131.699 761.543 132.203 761.543C133.027 761.543 133.668 761.814 134.125 762.357C134.582 762.9 134.811 763.678 134.811 764.689V765.141H130.516C130.531 765.766 130.713 766.271 131.061 766.658C131.412 767.041 131.857 767.232 132.396 767.232C132.779 767.232 133.104 767.154 133.369 766.998C133.635 766.842 133.867 766.635 134.066 766.377L134.729 766.893C134.197 767.709 133.4 768.117 132.338 768.117ZM132.203 762.434C131.766 762.434 131.398 762.594 131.102 762.914C130.805 763.23 130.621 763.676 130.551 764.25H133.727V764.168C133.695 763.617 133.547 763.191 133.281 762.891C133.016 762.586 132.656 762.434 132.203 762.434ZM137.248 768H136.164V759H137.248V768ZM138.701 764.771C138.701 764.15 138.822 763.592 139.064 763.096C139.311 762.6 139.65 762.217 140.084 761.947C140.521 761.678 141.02 761.543 141.578 761.543C142.441 761.543 143.139 761.842 143.67 762.439C144.205 763.037 144.473 763.832 144.473 764.824V764.9C144.473 765.518 144.354 766.072 144.115 766.564C143.881 767.053 143.543 767.434 143.102 767.707C142.664 767.98 142.16 768.117 141.59 768.117C140.73 768.117 140.033 767.818 139.498 767.221C138.967 766.623 138.701 765.832 138.701 764.848V764.771ZM139.791 764.9C139.791 765.604 139.953 766.168 140.277 766.594C140.605 767.02 141.043 767.232 141.59 767.232C142.141 767.232 142.578 767.018 142.902 766.588C143.227 766.154 143.389 765.549 143.389 764.771C143.389 764.076 143.223 763.514 142.891 763.084C142.562 762.65 142.125 762.434 141.578 762.434C141.043 762.434 140.611 762.646 140.283 763.072C139.955 763.498 139.791 764.107 139.791 764.9ZM151.188 764.9C151.188 765.865 150.967 766.643 150.525 767.232C150.084 767.822 149.486 768.117 148.732 768.117C147.963 768.117 147.357 767.873 146.916 767.385V770.438H145.832V761.66H146.822L146.875 762.363C147.316 761.816 147.93 761.543 148.715 761.543C149.477 761.543 150.078 761.83 150.52 762.404C150.965 762.979 151.188 763.777 151.188 764.801V764.9ZM150.104 764.777C150.104 764.062 149.951 763.498 149.646 763.084C149.342 762.67 148.924 762.463 148.393 762.463C147.736 762.463 147.244 762.754 146.916 763.336V766.365C147.24 766.943 147.736 767.232 148.404 767.232C148.924 767.232 149.336 767.027 149.641 766.617C149.949 766.203 150.104 765.59 150.104 764.777ZM155.201 768.117C154.342 768.117 153.643 767.836 153.104 767.273C152.564 766.707 152.295 765.951 152.295 765.006V764.807C152.295 764.178 152.414 763.617 152.652 763.125C152.895 762.629 153.23 762.242 153.66 761.965C154.094 761.684 154.562 761.543 155.066 761.543C155.891 761.543 156.531 761.814 156.988 762.357C157.445 762.9 157.674 763.678 157.674 764.689V765.141H153.379C153.395 765.766 153.576 766.271 153.924 766.658C154.275 767.041 154.721 767.232 155.26 767.232C155.643 767.232 155.967 767.154 156.232 766.998C156.498 766.842 156.73 766.635 156.93 766.377L157.592 766.893C157.061 767.709 156.264 768.117 155.201 768.117ZM155.066 762.434C154.629 762.434 154.262 762.594 153.965 762.914C153.668 763.23 153.484 763.676 153.414 764.25H156.59V764.168C156.559 763.617 156.41 763.191 156.145 762.891C155.879 762.586 155.52 762.434 155.066 762.434ZM158.67 764.777C158.67 763.805 158.9 763.023 159.361 762.434C159.822 761.84 160.426 761.543 161.172 761.543C161.914 761.543 162.502 761.797 162.936 762.305V759H164.02V768H163.023L162.971 767.32C162.537 767.852 161.934 768.117 161.16 768.117C160.426 768.117 159.826 767.816 159.361 767.215C158.9 766.613 158.67 765.828 158.67 764.859V764.777ZM159.754 764.9C159.754 765.619 159.902 766.182 160.199 766.588C160.496 766.994 160.906 767.197 161.43 767.197C162.117 767.197 162.619 766.889 162.936 766.271V763.359C162.611 762.762 162.113 762.463 161.441 762.463C160.91 762.463 160.496 762.668 160.199 763.078C159.902 763.488 159.754 764.096 159.754 764.9ZM174.051 764.9C174.051 765.869 173.828 766.648 173.383 767.238C172.938 767.824 172.34 768.117 171.59 768.117C170.789 768.117 170.17 767.834 169.732 767.268L169.68 768H168.684V759H169.768V762.357C170.205 761.814 170.809 761.543 171.578 761.543C172.348 761.543 172.951 761.834 173.389 762.416C173.83 762.998 174.051 763.795 174.051 764.807V764.9ZM172.967 764.777C172.967 764.039 172.824 763.469 172.539 763.066C172.254 762.664 171.844 762.463 171.309 762.463C170.594 762.463 170.08 762.795 169.768 763.459V766.201C170.1 766.865 170.617 767.197 171.32 767.197C171.84 767.197 172.244 766.996 172.533 766.594C172.822 766.191 172.967 765.586 172.967 764.777ZM177.426 766.412L178.902 761.66H180.062L177.514 768.979C177.119 770.033 176.492 770.561 175.633 770.561L175.428 770.543L175.023 770.467V769.588L175.316 769.611C175.684 769.611 175.969 769.537 176.172 769.389C176.379 769.24 176.549 768.969 176.682 768.574L176.922 767.93L174.66 761.66H175.844L177.426 766.412ZM190.48 766.881C190.191 767.295 189.787 767.605 189.268 767.812C188.752 768.016 188.15 768.117 187.463 768.117C186.768 768.117 186.15 767.955 185.611 767.631C185.072 767.303 184.654 766.838 184.357 766.236C184.064 765.635 183.914 764.938 183.906 764.145V763.4C183.906 762.115 184.205 761.119 184.803 760.412C185.404 759.705 186.248 759.352 187.334 759.352C188.225 759.352 188.941 759.58 189.484 760.037C190.027 760.49 190.359 761.135 190.48 761.971H189.355C189.145 760.842 188.473 760.277 187.34 760.277C186.586 760.277 186.014 760.543 185.623 761.074C185.236 761.602 185.041 762.367 185.037 763.371V764.068C185.037 765.025 185.256 765.787 185.693 766.354C186.131 766.916 186.723 767.197 187.469 767.197C187.891 767.197 188.26 767.15 188.576 767.057C188.893 766.963 189.154 766.805 189.361 766.582V764.666H187.387V763.752H190.48V766.881ZM196.105 768C196.043 767.875 195.992 767.652 195.953 767.332C195.449 767.855 194.848 768.117 194.148 768.117C193.523 768.117 193.01 767.941 192.607 767.59C192.209 767.234 192.01 766.785 192.01 766.242C192.01 765.582 192.26 765.07 192.76 764.707C193.264 764.34 193.971 764.156 194.881 764.156H195.936V763.658C195.936 763.279 195.822 762.979 195.596 762.756C195.369 762.529 195.035 762.416 194.594 762.416C194.207 762.416 193.883 762.514 193.621 762.709C193.359 762.904 193.229 763.141 193.229 763.418H192.139C192.139 763.102 192.25 762.797 192.473 762.504C192.699 762.207 193.004 761.973 193.387 761.801C193.773 761.629 194.197 761.543 194.658 761.543C195.389 761.543 195.961 761.727 196.375 762.094C196.789 762.457 197.004 762.959 197.02 763.6V766.518C197.02 767.1 197.094 767.562 197.242 767.906V768H196.105ZM194.307 767.174C194.646 767.174 194.969 767.086 195.273 766.91C195.578 766.734 195.799 766.506 195.936 766.225V764.924H195.086C193.758 764.924 193.094 765.312 193.094 766.09C193.094 766.43 193.207 766.695 193.434 766.887C193.66 767.078 193.951 767.174 194.307 767.174ZM202.633 767.373C202.211 767.869 201.592 768.117 200.775 768.117C200.1 768.117 199.584 767.922 199.229 767.531C198.877 767.137 198.699 766.555 198.695 765.785V761.66H199.779V765.756C199.779 766.717 200.17 767.197 200.951 767.197C201.779 767.197 202.33 766.889 202.604 766.271V761.66H203.688V768H202.656L202.633 767.373ZM206.811 760.125V761.66H207.994V762.498H206.811V766.43C206.811 766.684 206.863 766.875 206.969 767.004C207.074 767.129 207.254 767.191 207.508 767.191C207.633 767.191 207.805 767.168 208.023 767.121V768C207.738 768.078 207.461 768.117 207.191 768.117C206.707 768.117 206.342 767.971 206.096 767.678C205.85 767.385 205.727 766.969 205.727 766.43V762.498H204.572V761.66H205.727V760.125H206.811ZM213.18 768C213.117 767.875 213.066 767.652 213.027 767.332C212.523 767.855 211.922 768.117 211.223 768.117C210.598 768.117 210.084 767.941 209.682 767.59C209.283 767.234 209.084 766.785 209.084 766.242C209.084 765.582 209.334 765.07 209.834 764.707C210.338 764.34 211.045 764.156 211.955 764.156H213.01V763.658C213.01 763.279 212.896 762.979 212.67 762.756C212.443 762.529 212.109 762.416 211.668 762.416C211.281 762.416 210.957 762.514 210.695 762.709C210.434 762.904 210.303 763.141 210.303 763.418H209.213C209.213 763.102 209.324 762.797 209.547 762.504C209.773 762.207 210.078 761.973 210.461 761.801C210.848 761.629 211.271 761.543 211.732 761.543C212.463 761.543 213.035 761.727 213.449 762.094C213.863 762.457 214.078 762.959 214.094 763.6V766.518C214.094 767.1 214.168 767.562 214.316 767.906V768H213.18ZM211.381 767.174C211.721 767.174 212.043 767.086 212.348 766.91C212.652 766.734 212.873 766.506 213.01 766.225V764.924H212.16C210.832 764.924 210.168 765.312 210.168 766.09C210.168 766.43 210.281 766.695 210.508 766.887C210.734 767.078 211.025 767.174 211.381 767.174ZM216.812 761.66L216.842 762.363C217.307 761.816 217.934 761.543 218.723 761.543C219.609 761.543 220.213 761.883 220.533 762.562C220.744 762.258 221.018 762.012 221.354 761.824C221.693 761.637 222.094 761.543 222.555 761.543C223.945 761.543 224.652 762.279 224.676 763.752V768H223.592V763.816C223.592 763.363 223.488 763.025 223.281 762.803C223.074 762.576 222.727 762.463 222.238 762.463C221.836 762.463 221.502 762.584 221.236 762.826C220.971 763.064 220.816 763.387 220.773 763.793V768H219.684V763.846C219.684 762.924 219.232 762.463 218.33 762.463C217.619 762.463 217.133 762.766 216.871 763.371V768H215.787V761.66H216.812ZM235.738 765.293C235.633 766.195 235.299 766.893 234.736 767.385C234.178 767.873 233.434 768.117 232.504 768.117C231.496 768.117 230.688 767.756 230.078 767.033C229.473 766.311 229.17 765.344 229.17 764.133V763.312C229.17 762.52 229.311 761.822 229.592 761.221C229.877 760.619 230.279 760.158 230.799 759.838C231.318 759.514 231.92 759.352 232.604 759.352C233.51 759.352 234.236 759.605 234.783 760.113C235.33 760.617 235.648 761.316 235.738 762.211H234.607C234.51 761.531 234.297 761.039 233.969 760.734C233.645 760.43 233.189 760.277 232.604 760.277C231.885 760.277 231.32 760.543 230.91 761.074C230.504 761.605 230.301 762.361 230.301 763.342V764.168C230.301 765.094 230.494 765.83 230.881 766.377C231.268 766.924 231.809 767.197 232.504 767.197C233.129 767.197 233.607 767.057 233.939 766.775C234.275 766.49 234.498 765.996 234.607 765.293H235.738ZM238.193 762.428C238.674 761.838 239.299 761.543 240.068 761.543C241.408 761.543 242.084 762.299 242.096 763.811V768H241.012V763.805C241.008 763.348 240.902 763.01 240.695 762.791C240.492 762.572 240.174 762.463 239.74 762.463C239.389 762.463 239.08 762.557 238.814 762.744C238.549 762.932 238.342 763.178 238.193 763.482V768H237.109V759H238.193V762.428ZM247.633 768C247.57 767.875 247.52 767.652 247.48 767.332C246.977 767.855 246.375 768.117 245.676 768.117C245.051 768.117 244.537 767.941 244.135 767.59C243.736 767.234 243.537 766.785 243.537 766.242C243.537 765.582 243.787 765.07 244.287 764.707C244.791 764.34 245.498 764.156 246.408 764.156H247.463V763.658C247.463 763.279 247.35 762.979 247.123 762.756C246.896 762.529 246.562 762.416 246.121 762.416C245.734 762.416 245.41 762.514 245.148 762.709C244.887 762.904 244.756 763.141 244.756 763.418H243.666C243.666 763.102 243.777 762.797 244 762.504C244.227 762.207 244.531 761.973 244.914 761.801C245.301 761.629 245.725 761.543 246.186 761.543C246.916 761.543 247.488 761.727 247.902 762.094C248.316 762.457 248.531 762.959 248.547 763.6V766.518C248.547 767.1 248.621 767.562 248.77 767.906V768H247.633ZM245.834 767.174C246.174 767.174 246.496 767.086 246.801 766.91C247.105 766.734 247.326 766.506 247.463 766.225V764.924H246.613C245.285 764.924 244.621 765.312 244.621 766.09C244.621 766.43 244.734 766.695 244.961 766.887C245.188 767.078 245.479 767.174 245.834 767.174ZM251.271 761.66L251.307 762.457C251.791 761.848 252.424 761.543 253.205 761.543C254.545 761.543 255.221 762.299 255.232 763.811V768H254.148V763.805C254.145 763.348 254.039 763.01 253.832 762.791C253.629 762.572 253.311 762.463 252.877 762.463C252.525 762.463 252.217 762.557 251.951 762.744C251.686 762.932 251.479 763.178 251.33 763.482V768H250.246V761.66H251.271ZM256.604 764.777C256.604 763.805 256.834 763.023 257.295 762.434C257.756 761.84 258.359 761.543 259.105 761.543C259.848 761.543 260.436 761.797 260.869 762.305V759H261.953V768H260.957L260.904 767.32C260.471 767.852 259.867 768.117 259.094 768.117C258.359 768.117 257.76 767.816 257.295 767.215C256.834 766.613 256.604 765.828 256.604 764.859V764.777ZM257.688 764.9C257.688 765.619 257.836 766.182 258.133 766.588C258.43 766.994 258.84 767.197 259.363 767.197C260.051 767.197 260.553 766.889 260.869 766.271V763.359C260.545 762.762 260.047 762.463 259.375 762.463C258.844 762.463 258.43 762.668 258.133 763.078C257.836 763.488 257.688 764.096 257.688 764.9ZM266.705 762.633C266.541 762.605 266.363 762.592 266.172 762.592C265.461 762.592 264.979 762.895 264.725 763.5V768H263.641V761.66H264.695L264.713 762.393C265.068 761.826 265.572 761.543 266.225 761.543C266.436 761.543 266.596 761.57 266.705 761.625V762.633ZM271.387 768C271.324 767.875 271.273 767.652 271.234 767.332C270.73 767.855 270.129 768.117 269.43 768.117C268.805 768.117 268.291 767.941 267.889 767.59C267.49 767.234 267.291 766.785 267.291 766.242C267.291 765.582 267.541 765.07 268.041 764.707C268.545 764.34 269.252 764.156 270.162 764.156H271.217V763.658C271.217 763.279 271.104 762.979 270.877 762.756C270.65 762.529 270.316 762.416 269.875 762.416C269.488 762.416 269.164 762.514 268.902 762.709C268.641 762.904 268.51 763.141 268.51 763.418H267.42C267.42 763.102 267.531 762.797 267.754 762.504C267.98 762.207 268.285 761.973 268.668 761.801C269.055 761.629 269.479 761.543 269.939 761.543C270.67 761.543 271.242 761.727 271.656 762.094C272.07 762.457 272.285 762.959 272.301 763.6V766.518C272.301 767.1 272.375 767.562 272.523 767.906V768H271.387ZM269.588 767.174C269.928 767.174 270.25 767.086 270.555 766.91C270.859 766.734 271.08 766.506 271.217 766.225V764.924H270.367C269.039 764.924 268.375 765.312 268.375 766.09C268.375 766.43 268.488 766.695 268.715 766.887C268.941 767.078 269.232 767.174 269.588 767.174ZM279.66 764.197C278.695 763.92 277.992 763.58 277.551 763.178C277.113 762.771 276.895 762.271 276.895 761.678C276.895 761.006 277.162 760.451 277.697 760.014C278.236 759.572 278.936 759.352 279.795 759.352C280.381 759.352 280.902 759.465 281.359 759.691C281.82 759.918 282.176 760.23 282.426 760.629C282.68 761.027 282.807 761.463 282.807 761.936H281.676C281.676 761.42 281.512 761.016 281.184 760.723C280.855 760.426 280.393 760.277 279.795 760.277C279.24 760.277 278.807 760.4 278.494 760.646C278.186 760.889 278.031 761.227 278.031 761.66C278.031 762.008 278.178 762.303 278.471 762.545C278.768 762.783 279.27 763.002 279.977 763.201C280.688 763.4 281.242 763.621 281.641 763.863C282.043 764.102 282.34 764.381 282.531 764.701C282.727 765.021 282.824 765.398 282.824 765.832C282.824 766.523 282.555 767.078 282.016 767.496C281.477 767.91 280.756 768.117 279.854 768.117C279.268 768.117 278.721 768.006 278.213 767.783C277.705 767.557 277.312 767.248 277.035 766.857C276.762 766.467 276.625 766.023 276.625 765.527H277.756C277.756 766.043 277.945 766.451 278.324 766.752C278.707 767.049 279.217 767.197 279.854 767.197C280.447 767.197 280.902 767.076 281.219 766.834C281.535 766.592 281.693 766.262 281.693 765.844C281.693 765.426 281.547 765.104 281.254 764.877C280.961 764.646 280.43 764.42 279.66 764.197ZM288.016 768C287.953 767.875 287.902 767.652 287.863 767.332C287.359 767.855 286.758 768.117 286.059 768.117C285.434 768.117 284.92 767.941 284.518 767.59C284.119 767.234 283.92 766.785 283.92 766.242C283.92 765.582 284.17 765.07 284.67 764.707C285.174 764.34 285.881 764.156 286.791 764.156H287.846V763.658C287.846 763.279 287.732 762.979 287.506 762.756C287.279 762.529 286.945 762.416 286.504 762.416C286.117 762.416 285.793 762.514 285.531 762.709C285.27 762.904 285.139 763.141 285.139 763.418H284.049C284.049 763.102 284.16 762.797 284.383 762.504C284.609 762.207 284.914 761.973 285.297 761.801C285.684 761.629 286.107 761.543 286.568 761.543C287.299 761.543 287.871 761.727 288.285 762.094C288.699 762.457 288.914 762.959 288.93 763.6V766.518C288.93 767.1 289.004 767.562 289.152 767.906V768H288.016ZM286.217 767.174C286.557 767.174 286.879 767.086 287.184 766.91C287.488 766.734 287.709 766.506 287.846 766.225V764.924H286.996C285.668 764.924 285.004 765.312 285.004 766.09C285.004 766.43 285.117 766.695 285.344 766.887C285.57 767.078 285.861 767.174 286.217 767.174ZM291.713 762.428C292.193 761.838 292.818 761.543 293.588 761.543C294.928 761.543 295.604 762.299 295.615 763.811V768H294.531V763.805C294.527 763.348 294.422 763.01 294.215 762.791C294.012 762.572 293.693 762.463 293.26 762.463C292.908 762.463 292.6 762.557 292.334 762.744C292.068 762.932 291.861 763.178 291.713 763.482V768H290.629V759H291.713V762.428ZM301.152 768C301.09 767.875 301.039 767.652 301 767.332C300.496 767.855 299.895 768.117 299.195 768.117C298.57 768.117 298.057 767.941 297.654 767.59C297.256 767.234 297.057 766.785 297.057 766.242C297.057 765.582 297.307 765.07 297.807 764.707C298.311 764.34 299.018 764.156 299.928 764.156H300.982V763.658C300.982 763.279 300.869 762.979 300.643 762.756C300.416 762.529 300.082 762.416 299.641 762.416C299.254 762.416 298.93 762.514 298.668 762.709C298.406 762.904 298.275 763.141 298.275 763.418H297.186C297.186 763.102 297.297 762.797 297.52 762.504C297.746 762.207 298.051 761.973 298.434 761.801C298.82 761.629 299.244 761.543 299.705 761.543C300.436 761.543 301.008 761.727 301.422 762.094C301.836 762.457 302.051 762.959 302.066 763.6V766.518C302.066 767.1 302.141 767.562 302.289 767.906V768H301.152ZM299.354 767.174C299.693 767.174 300.016 767.086 300.32 766.91C300.625 766.734 300.846 766.506 300.982 766.225V764.924H300.133C298.805 764.924 298.141 765.312 298.141 766.09C298.141 766.43 298.254 766.695 298.48 766.887C298.707 767.078 298.998 767.174 299.354 767.174Z" fill="black"/>
<path d="M190.533 780.502C190.533 781.1 190.363 781.557 190.023 781.873C189.688 782.186 189.211 782.342 188.594 782.342C187.98 782.342 187.488 782.137 187.117 781.727C186.75 781.312 186.566 780.75 186.566 780.039V779.395C186.566 778.707 186.752 778.158 187.123 777.748C187.498 777.334 187.988 777.127 188.594 777.127C189.219 777.127 189.699 777.287 190.035 777.607C190.371 777.928 190.539 778.379 190.539 778.961H189.684C189.684 778.574 189.59 778.299 189.402 778.135C189.219 777.967 188.949 777.883 188.594 777.883C188.227 777.883 187.938 778.018 187.727 778.287C187.516 778.557 187.41 778.932 187.41 779.412V780.074C187.41 780.543 187.516 780.912 187.727 781.182C187.938 781.451 188.227 781.586 188.594 781.586C188.953 781.586 189.223 781.504 189.402 781.34C189.586 781.176 189.678 780.896 189.678 780.502H190.533ZM185.184 779.729C185.184 780.4 185.34 781.023 185.652 781.598C185.965 782.168 186.389 782.615 186.924 782.939C187.463 783.264 188.045 783.426 188.67 783.426C189.295 783.426 189.875 783.264 190.41 782.939C190.945 782.615 191.369 782.168 191.682 781.598C191.994 781.023 192.15 780.4 192.15 779.729C192.15 779.064 191.996 778.449 191.688 777.883C191.379 777.316 190.955 776.871 190.416 776.547C189.881 776.219 189.299 776.055 188.67 776.055C188.045 776.055 187.463 776.217 186.924 776.541C186.385 776.861 185.959 777.307 185.646 777.877C185.338 778.447 185.184 779.064 185.184 779.729ZM184.51 779.729C184.51 778.939 184.691 778.207 185.055 777.531C185.422 776.855 185.928 776.324 186.572 775.938C187.221 775.547 187.92 775.352 188.67 775.352C189.42 775.352 190.117 775.547 190.762 775.938C191.406 776.324 191.91 776.855 192.273 777.531C192.641 778.207 192.824 778.939 192.824 779.729C192.824 780.498 192.648 781.219 192.297 781.891C191.945 782.562 191.445 783.104 190.797 783.514C190.152 783.92 189.443 784.123 188.67 784.123C187.9 784.123 187.191 783.922 186.543 783.52C185.898 783.113 185.398 782.574 185.043 781.902C184.688 781.23 184.51 780.506 184.51 779.729ZM202.686 784H197.096V783.221L200.049 779.939C200.486 779.443 200.787 779.041 200.951 778.732C201.119 778.42 201.203 778.098 201.203 777.766C201.203 777.32 201.068 776.955 200.799 776.67C200.529 776.385 200.17 776.242 199.721 776.242C199.182 776.242 198.762 776.396 198.461 776.705C198.164 777.01 198.016 777.436 198.016 777.982H196.932C196.932 777.197 197.184 776.562 197.688 776.078C198.195 775.594 198.873 775.352 199.721 775.352C200.514 775.352 201.141 775.561 201.602 775.979C202.062 776.393 202.293 776.945 202.293 777.637C202.293 778.477 201.758 779.477 200.688 780.637L198.402 783.115H202.686V784ZM209.184 780.361C209.184 781.631 208.967 782.574 208.533 783.191C208.1 783.809 207.422 784.117 206.5 784.117C205.59 784.117 204.916 783.816 204.479 783.215C204.041 782.609 203.814 781.707 203.799 780.508V779.061C203.799 777.807 204.016 776.875 204.449 776.266C204.883 775.656 205.562 775.352 206.488 775.352C207.406 775.352 208.082 775.646 208.516 776.236C208.949 776.822 209.172 777.729 209.184 778.955V780.361ZM208.1 778.879C208.1 777.961 207.971 777.293 207.713 776.875C207.455 776.453 207.047 776.242 206.488 776.242C205.934 776.242 205.529 776.451 205.275 776.869C205.021 777.287 204.891 777.93 204.883 778.797V780.531C204.883 781.453 205.016 782.135 205.281 782.576C205.551 783.014 205.957 783.232 206.5 783.232C207.035 783.232 207.432 783.025 207.689 782.611C207.951 782.197 208.088 781.545 208.1 780.654V778.879ZM216.162 784H210.572V783.221L213.525 779.939C213.963 779.443 214.264 779.041 214.428 778.732C214.596 778.42 214.68 778.098 214.68 777.766C214.68 777.32 214.545 776.955 214.275 776.67C214.006 776.385 213.646 776.242 213.197 776.242C212.658 776.242 212.238 776.396 211.938 776.705C211.641 777.01 211.492 777.436 211.492 777.982H210.408C210.408 777.197 210.66 776.562 211.164 776.078C211.672 775.594 212.35 775.352 213.197 775.352C213.99 775.352 214.617 775.561 215.078 775.979C215.539 776.393 215.77 776.945 215.77 777.637C215.77 778.477 215.234 779.477 214.164 780.637L211.879 783.115H216.162V784ZM220.873 784H219.783V776.775L217.598 777.578V776.594L220.703 775.428H220.873V784Z" fill="black"/>
</svg>
